<?xml version="1.0" encoding="UTF-8"?>
<svg xmlns="http://www.w3.org/2000/svg" xmlns:xlink="http://www.w3.org/1999/xlink" width="150pt" height="150pt" viewBox="0 0 150 150" version="1.1">
<g id="surface1">
<path style=" stroke:none;fill-rule:evenodd;fill:rgb(0%,76.470588%,53.72549%);fill-opacity:1;" d="M 24.625 23.730469 C 24.625 20.765625 27.03125 18.359375 30 18.359375 L 119.550781 18.359375 C 122.519531 18.359375 124.925781 20.765625 124.925781 23.730469 L 124.925781 82.835938 C 124.925781 85.804688 122.519531 88.210938 119.550781 88.210938 L 30 88.210938 C 27.03125 88.210938 24.625 85.804688 24.625 82.835938 Z M 30 21.941406 C 29.011719 21.941406 28.207031 22.742188 28.207031 23.730469 L 28.207031 82.835938 C 28.207031 83.824219 29.011719 84.625 30 84.625 L 119.550781 84.625 C 120.542969 84.625 121.34375 83.824219 121.34375 82.835938 L 121.34375 23.730469 C 121.34375 22.742188 120.542969 21.941406 119.550781 21.941406 Z M 30 21.941406 "/>
<path style=" stroke:none;fill-rule:evenodd;fill:rgb(100%,49.803922%,25.490196%);fill-opacity:1;" d="M 123.132812 40.746094 C 124.125 40.746094 124.925781 41.546875 124.925781 42.539062 L 124.925781 82.835938 C 124.925781 85.804688 122.519531 88.207031 119.550781 88.207031 L 81.269531 88.207031 C 80.28125 88.207031 79.476562 87.40625 79.476562 86.417969 C 79.476562 85.429688 80.28125 84.625 81.269531 84.625 L 119.550781 84.625 C 120.542969 84.625 121.34375 83.824219 121.34375 82.835938 L 121.34375 42.539062 C 121.34375 41.546875 122.144531 40.746094 123.132812 40.746094 Z M 123.132812 40.746094 "/>
<path style=" stroke:none;fill-rule:evenodd;fill:rgb(34.901961%,79.607843%,90.980392%);fill-opacity:1;" d="M 26.417969 49.253906 C 27.40625 49.253906 28.207031 50.054688 28.207031 51.042969 L 28.207031 82.835938 C 28.207031 83.824219 29.011719 84.625 30 84.625 L 72.761719 84.625 C 73.75 84.625 74.550781 85.429688 74.550781 86.417969 C 74.550781 87.40625 73.75 88.210938 72.761719 88.210938 L 30 88.210938 C 27.03125 88.210938 24.625 85.804688 24.625 82.835938 L 24.625 51.042969 C 24.625 50.054688 25.429688 49.253906 26.417969 49.253906 Z M 26.417969 49.253906 "/>
<path style=" stroke:none;fill-rule:evenodd;fill:rgb(96.078431%,71.372549%,80.392157%);fill-opacity:1;" d="M 24.625 23.730469 C 24.625 20.765625 27.03125 18.359375 30 18.359375 L 53.730469 18.359375 C 54.71875 18.359375 55.523438 19.160156 55.523438 20.148438 C 55.523438 21.136719 54.71875 21.941406 53.730469 21.941406 L 30 21.941406 C 29.011719 21.941406 28.207031 22.742188 28.207031 23.730469 L 28.207031 63.582031 C 28.207031 64.570312 27.40625 65.375 26.417969 65.375 C 25.429688 65.375 24.625 64.570312 24.625 63.582031 Z M 24.625 23.730469 "/>
<path style=" stroke:none;fill-rule:nonzero;fill:rgb(99.215686%,85.490196%,14.117647%);fill-opacity:1;" d="M 86.175781 32.441406 C 86.175781 31.574219 86.878906 30.867188 87.75 30.867188 L 91.375 30.867188 C 92.242188 30.867188 92.949219 31.574219 92.949219 32.441406 L 92.949219 34.035156 C 92.949219 34.902344 92.242188 35.609375 91.375 35.609375 L 87.75 35.609375 C 86.878906 35.609375 86.175781 34.902344 86.175781 34.035156 Z M 86.175781 32.441406 "/>
<path style=" stroke:none;fill-rule:nonzero;fill:rgb(99.215686%,85.490196%,14.117647%);fill-opacity:1;" d="M 86.175781 39.210938 C 86.175781 38.34375 86.878906 37.640625 87.75 37.640625 L 91.375 37.640625 C 92.242188 37.640625 92.949219 38.34375 92.949219 39.210938 L 92.949219 40.804688 C 92.949219 41.675781 92.242188 42.378906 91.375 42.378906 L 87.75 42.378906 C 86.878906 42.378906 86.175781 41.675781 86.175781 40.804688 Z M 86.175781 39.210938 "/>
<path style=" stroke:none;fill-rule:nonzero;fill:rgb(99.215686%,85.490196%,14.117647%);fill-opacity:1;" d="M 86.175781 45.984375 C 86.175781 45.113281 86.878906 44.410156 87.75 44.410156 L 91.375 44.410156 C 92.242188 44.410156 92.949219 45.113281 92.949219 45.984375 L 92.949219 47.578125 C 92.949219 48.445312 92.242188 49.148438 91.375 49.148438 L 87.75 49.148438 C 86.878906 49.148438 86.175781 48.445312 86.175781 47.578125 Z M 86.175781 45.984375 "/>
<path style=" stroke:none;fill-rule:nonzero;fill:rgb(99.215686%,85.490196%,14.117647%);fill-opacity:1;" d="M 86.175781 52.753906 C 86.175781 51.886719 86.878906 51.179688 87.75 51.179688 L 91.375 51.179688 C 92.242188 51.179688 92.949219 51.886719 92.949219 52.753906 L 92.949219 54.347656 C 92.949219 55.214844 92.242188 55.921875 91.375 55.921875 L 87.75 55.921875 C 86.878906 55.921875 86.175781 55.214844 86.175781 54.347656 Z M 86.175781 52.753906 "/>
<path style=" stroke:none;fill-rule:nonzero;fill:rgb(99.215686%,85.490196%,14.117647%);fill-opacity:1;" d="M 94.980469 32.441406 C 94.980469 31.574219 95.683594 30.867188 96.550781 30.867188 L 100.179688 30.867188 C 101.046875 30.867188 101.75 31.574219 101.75 32.441406 L 101.75 34.035156 C 101.75 34.902344 101.046875 35.609375 100.179688 35.609375 L 96.550781 35.609375 C 95.683594 35.609375 94.980469 34.902344 94.980469 34.035156 Z M 94.980469 32.441406 "/>
<path style=" stroke:none;fill-rule:nonzero;fill:rgb(99.215686%,85.490196%,14.117647%);fill-opacity:1;" d="M 94.980469 39.210938 C 94.980469 38.34375 95.683594 37.640625 96.550781 37.640625 L 100.179688 37.640625 C 101.046875 37.640625 101.75 38.34375 101.75 39.210938 L 101.75 40.804688 C 101.75 41.675781 101.046875 42.378906 100.179688 42.378906 L 96.550781 42.378906 C 95.683594 42.378906 94.980469 41.675781 94.980469 40.804688 Z M 94.980469 39.210938 "/>
<path style=" stroke:none;fill-rule:nonzero;fill:rgb(99.215686%,85.490196%,14.117647%);fill-opacity:1;" d="M 94.980469 45.984375 C 94.980469 45.113281 95.683594 44.410156 96.550781 44.410156 L 100.179688 44.410156 C 101.046875 44.410156 101.75 45.113281 101.75 45.984375 L 101.75 47.578125 C 101.75 48.445312 101.046875 49.148438 100.179688 49.148438 L 96.550781 49.148438 C 95.683594 49.148438 94.980469 48.445312 94.980469 47.578125 Z M 94.980469 45.984375 "/>
<path style=" stroke:none;fill-rule:nonzero;fill:rgb(99.215686%,85.490196%,14.117647%);fill-opacity:1;" d="M 94.980469 52.753906 C 94.980469 51.886719 95.683594 51.179688 96.550781 51.179688 L 100.179688 51.179688 C 101.046875 51.179688 101.75 51.886719 101.75 52.753906 L 101.75 54.347656 C 101.75 55.214844 101.046875 55.921875 100.179688 55.921875 L 96.550781 55.921875 C 95.683594 55.921875 94.980469 55.214844 94.980469 54.347656 Z M 94.980469 52.753906 "/>
<path style=" stroke:none;fill-rule:nonzero;fill:rgb(99.215686%,85.490196%,14.117647%);fill-opacity:1;" d="M 103.78125 32.441406 C 103.78125 31.574219 104.488281 30.867188 105.355469 30.867188 L 108.980469 30.867188 C 109.847656 30.867188 110.554688 31.574219 110.554688 32.441406 L 110.554688 34.035156 C 110.554688 34.902344 109.847656 35.609375 108.980469 35.609375 L 105.355469 35.609375 C 104.488281 35.609375 103.78125 34.902344 103.78125 34.035156 Z M 103.78125 32.441406 "/>
<path style=" stroke:none;fill-rule:nonzero;fill:rgb(99.215686%,85.490196%,14.117647%);fill-opacity:1;" d="M 103.78125 39.210938 C 103.78125 38.34375 104.488281 37.640625 105.355469 37.640625 L 108.980469 37.640625 C 109.847656 37.640625 110.554688 38.34375 110.554688 39.210938 L 110.554688 40.804688 C 110.554688 41.675781 109.847656 42.378906 108.980469 42.378906 L 105.355469 42.378906 C 104.488281 42.378906 103.78125 41.675781 103.78125 40.804688 Z M 103.78125 39.210938 "/>
<path style=" stroke:none;fill-rule:nonzero;fill:rgb(99.215686%,85.490196%,14.117647%);fill-opacity:1;" d="M 103.78125 45.984375 C 103.78125 45.113281 104.488281 44.410156 105.355469 44.410156 L 108.980469 44.410156 C 109.847656 44.410156 110.554688 45.113281 110.554688 45.984375 L 110.554688 47.578125 C 110.554688 48.445312 109.847656 49.148438 108.980469 49.148438 L 105.355469 49.148438 C 104.488281 49.148438 103.78125 48.445312 103.78125 47.578125 Z M 103.78125 45.984375 "/>
<path style=" stroke:none;fill-rule:nonzero;fill:rgb(99.215686%,85.490196%,14.117647%);fill-opacity:1;" d="M 103.78125 52.753906 C 103.78125 51.886719 104.488281 51.179688 105.355469 51.179688 L 108.980469 51.179688 C 109.847656 51.179688 110.554688 51.886719 110.554688 52.753906 L 110.554688 54.347656 C 110.554688 55.214844 109.847656 55.921875 108.980469 55.921875 L 105.355469 55.921875 C 104.488281 55.921875 103.78125 55.214844 103.78125 54.347656 Z M 103.78125 52.753906 "/>
<path style=" stroke:none;fill-rule:nonzero;fill:rgb(80%,80%,80%);fill-opacity:1;" d="M 39 66.542969 C 39 64.804688 40.40625 63.398438 42.144531 63.398438 L 107.40625 63.398438 C 109.144531 63.398438 110.554688 64.804688 110.554688 66.542969 L 110.554688 74.011719 C 110.554688 75.75 109.144531 77.15625 107.40625 77.15625 L 42.144531 77.15625 C 40.40625 77.15625 39 75.75 39 74.011719 Z M 39 66.542969 "/>
<path style=" stroke:none;fill-rule:nonzero;fill:rgb(17.254902%,16.470588%,16.078431%);fill-opacity:1;" d="M 42.929688 70.472656 C 42.929688 69.171875 43.988281 68.113281 45.289062 68.113281 L 104.261719 68.113281 C 105.566406 68.113281 106.621094 69.171875 106.621094 70.472656 C 106.621094 71.777344 105.566406 72.832031 104.261719 72.832031 L 45.289062 72.832031 C 43.988281 72.832031 42.929688 71.777344 42.929688 70.472656 Z M 42.929688 70.472656 "/>
<path style=" stroke:none;fill-rule:nonzero;fill:rgb(89.411765%,67.45098%,48.235294%);fill-opacity:1;" d="M 57.390625 90.691406 C 57.160156 81.007812 64.824219 72.964844 74.511719 72.730469 C 84.035156 72.503906 91.941406 80.039062 92.171875 89.5625 L 92.265625 93.546875 L 57.480469 94.378906 Z M 57.390625 90.691406 "/>
<path style=" stroke:none;fill-rule:nonzero;fill:rgb(89.411765%,67.45098%,48.235294%);fill-opacity:1;" d="M 64.554688 101.925781 L 85.390625 101.925781 L 85.390625 123.457031 C 85.390625 125.027344 84.117188 126.300781 82.546875 126.300781 L 67.398438 126.300781 C 65.828125 126.300781 64.554688 125.027344 64.554688 123.457031 Z M 64.554688 101.925781 "/>
<path style=" stroke:none;fill-rule:nonzero;fill:rgb(89.411765%,67.45098%,48.235294%);fill-opacity:1;" d="M 91.683594 95.046875 C 91.683594 104.492188 84.027344 112.148438 74.578125 112.148438 C 65.132812 112.148438 57.476562 104.492188 57.476562 95.046875 C 57.476562 85.601562 65.132812 77.941406 74.578125 77.941406 C 84.027344 77.941406 91.683594 85.601562 91.683594 95.046875 Z M 91.683594 95.046875 "/>
<path style=" stroke:none;fill-rule:nonzero;fill:rgb(0%,76.470588%,53.72549%);fill-opacity:1;" d="M 85.140625 103.585938 C 85.132812 103.582031 85.125 103.578125 85.121094 103.574219 C 82.152344 101.800781 77.152344 98.46875 76.933594 98.328125 C 76.328125 97.925781 76.160156 97.097656 76.566406 96.496094 C 76.96875 95.890625 77.796875 95.726562 78.402344 96.136719 C 78.449219 96.175781 83.558594 99.574219 86.46875 101.316406 C 87.097656 101.695312 87.304688 102.503906 86.925781 103.128906 C 86.570312 103.746094 85.769531 103.953125 85.140625 103.585938 Z M 85.140625 103.585938 "/>
<path style=" stroke:none;fill-rule:nonzero;fill:rgb(47.843137%,32.54902%,10.980392%);fill-opacity:1;" d="M 102.691406 68.113281 L 102.691406 93.277344 L 46.863281 93.277344 L 46.863281 68.113281 Z M 102.691406 68.113281 "/>
<path style=" stroke:none;fill-rule:nonzero;fill:rgb(0%,76.470588%,53.72549%);fill-opacity:1;" d="M 102.691406 68.113281 L 102.691406 91.703125 L 46.863281 91.703125 L 46.863281 68.113281 Z M 102.691406 68.113281 "/>
<path style=" stroke:none;fill-rule:nonzero;fill:rgb(100%,100%,100%);fill-opacity:1;" d="M 78.613281 79.671875 C 78.613281 80.398438 78.378906 81.011719 77.90625 81.511719 C 77.433594 82.007812 76.792969 82.355469 75.988281 82.566406 C 76.125 83.144531 76.175781 83.726562 76.144531 84.3125 C 75.789062 84.394531 75.449219 84.4375 75.121094 84.4375 C 74.808594 84.4375 74.46875 84.394531 74.101562 84.3125 L 74.085938 83.964844 C 74.085938 83.597656 74.125 83.207031 74.210938 82.785156 C 73.328125 82.785156 72.507812 82.671875 71.742188 82.441406 C 71.667969 82.230469 71.632812 82.007812 71.632812 81.765625 C 71.632812 81.34375 71.730469 80.953125 71.929688 80.585938 C 72.875 80.929688 73.640625 81.105469 74.226562 81.105469 C 75.703125 81.105469 76.441406 80.683594 76.441406 79.847656 C 76.441406 79.46875 76.324219 79.15625 76.082031 78.902344 C 75.851562 78.640625 75.378906 78.367188 74.667969 78.085938 C 73.964844 77.800781 73.40625 77.535156 73 77.28125 C 72.589844 77.019531 72.285156 76.714844 72.085938 76.371094 C 71.886719 76.023438 71.789062 75.601562 71.789062 75.097656 C 71.789062 74.394531 72.003906 73.796875 72.433594 73.304688 C 72.863281 72.8125 73.464844 72.46875 74.242188 72.28125 C 74.105469 71.757812 74.058594 71.195312 74.101562 70.597656 C 74.46875 70.515625 74.808594 70.472656 75.121094 70.472656 C 75.449219 70.472656 75.789062 70.515625 76.144531 70.597656 L 76.160156 70.945312 C 76.160156 71.3125 76.117188 71.707031 76.035156 72.125 C 76.601562 72.136719 77.25 72.234375 77.984375 72.421875 C 78.070312 72.558594 78.109375 72.734375 78.109375 72.941406 C 78.109375 73.152344 78.074219 73.371094 78 73.601562 C 77.9375 73.824219 77.859375 74.011719 77.765625 74.167969 C 76.808594 73.886719 76.078125 73.746094 75.5625 73.746094 C 74.492188 73.746094 73.957031 74.089844 73.957031 74.78125 C 73.957031 75.054688 74.089844 75.328125 74.351562 75.601562 C 74.625 75.863281 75 76.082031 75.484375 76.261719 C 76.3125 76.566406 76.953125 76.878906 77.402344 77.203125 C 77.851562 77.519531 78.167969 77.871094 78.347656 78.257812 C 78.523438 78.644531 78.613281 79.117188 78.613281 79.671875 Z M 78.613281 79.671875 "/>
<path style=" stroke:none;fill-rule:nonzero;fill:rgb(89.411765%,67.45098%,48.235294%);fill-opacity:1;" d="M 88.4375 106.316406 C 85.644531 108.445312 82.398438 109.972656 78.921875 110.765625 C 78.144531 110.9375 77.355469 111.261719 76.574219 111.675781 C 75.664062 112.152344 74.765625 112.753906 73.945312 113.378906 C 73.1875 112.429688 72.585938 111.386719 72.152344 110.289062 L 72.550781 100.429688 C 72.992188 99.550781 73.539062 98.707031 74.210938 97.925781 C 76.867188 94.824219 80.746094 93.394531 84.519531 93.730469 C 85.726562 93.839844 86.015625 93.800781 87.152344 94.273438 L 90.523438 90.339844 L 93.183594 80.152344 C 93.640625 76.832031 96.699219 74.53125 100.007812 74.980469 C 100.148438 75 100.265625 75.0625 100.367188 75.144531 C 100.539062 75.292969 100.640625 75.523438 100.597656 75.773438 L 99.335938 84.890625 L 98.285156 92.734375 C 98.035156 94.589844 97.296875 96.339844 96.140625 97.820312 L 94.667969 99.710938 L 94.234375 100.265625 L 94.21875 100.28125 L 93.023438 101.8125 C 91.671875 103.507812 90.128906 105.023438 88.4375 106.316406 Z M 88.4375 106.316406 "/>
<path style=" stroke:none;fill-rule:nonzero;fill:rgb(34.901961%,79.607843%,90.980392%);fill-opacity:1;" d="M 82.699219 131.804688 L 67.246094 131.804688 C 65.90625 131.804688 64.621094 131.273438 63.675781 130.320312 C 62.726562 129.371094 62.195312 128.082031 62.195312 126.738281 L 62.195312 114.507812 L 87.75 114.507812 L 87.75 126.738281 C 87.75 128.082031 87.21875 129.371094 86.269531 130.320312 C 85.324219 131.273438 84.039062 131.804688 82.699219 131.804688 Z M 82.699219 131.804688 "/>
<path style=" stroke:none;fill-rule:nonzero;fill:rgb(100%,49.803922%,25.490196%);fill-opacity:1;" d="M 88.539062 112.148438 L 61.410156 112.148438 L 61.410156 117.652344 L 88.539062 117.652344 Z M 88.539062 112.148438 "/>
<path style=" stroke:none;fill-rule:evenodd;fill:rgb(80%,80%,80%);fill-opacity:1;" d="M 42.582031 34.347656 L 42.582031 52.34375 L 77.089844 52.34375 L 77.089844 34.347656 Z M 40.570312 30.765625 C 39.703125 30.765625 39 31.46875 39 32.335938 L 39 54.355469 C 39 55.222656 39.703125 55.925781 40.570312 55.925781 L 79.101562 55.925781 C 79.96875 55.925781 80.671875 55.222656 80.671875 54.355469 L 80.671875 32.335938 C 80.671875 31.46875 79.96875 30.765625 79.101562 30.765625 Z M 40.570312 30.765625 "/>
</g>
</svg>
