<?xml version="1.0" encoding="UTF-8"?>
<svg xmlns="http://www.w3.org/2000/svg" xmlns:xlink="http://www.w3.org/1999/xlink" width="150pt" height="150pt" viewBox="0 0 150 150" version="1.1">
<g id="surface1">
<path style=" stroke:none;fill-rule:nonzero;fill:rgb(0%,76.470588%,53.72549%);fill-opacity:1;" d="M 28.816406 39.574219 C 30.300781 39.574219 31.503906 38.371094 31.503906 36.886719 L 31.503906 36.800781 C 31.503906 34.597656 30.445312 32.476562 28.601562 30.980469 C 27.546875 30.128906 26.292969 29.511719 24.933594 29.164062 L 24.933594 27.328125 C 24.933594 25.839844 23.730469 24.636719 22.246094 24.636719 C 20.761719 24.636719 19.558594 25.839844 19.558594 27.328125 L 19.558594 29.046875 C 18 29.359375 16.5625 30.019531 15.378906 30.980469 C 13.535156 32.476562 12.476562 34.597656 12.476562 36.800781 L 12.476562 37.3125 C 12.476562 39.515625 13.535156 41.636719 15.378906 43.128906 C 17.085938 44.515625 19.320312 45.277344 21.675781 45.277344 L 22.304688 45.277344 C 24.339844 45.277344 26.128906 46.484375 26.128906 47.863281 L 26.128906 48.746094 C 26.128906 50.125 24.339844 51.335938 22.304688 51.335938 L 21.675781 51.335938 C 19.671875 51.335938 17.914062 50.164062 17.855469 48.8125 C 17.855469 48.808594 17.855469 48.804688 17.855469 48.800781 C 17.855469 47.3125 16.652344 46.109375 15.164062 46.109375 C 13.699219 46.109375 12.503906 47.285156 12.476562 48.746094 C 12.476562 48.757812 12.476562 48.769531 12.476562 48.777344 C 12.476562 48.785156 12.476562 48.792969 12.476562 48.796875 C 12.476562 48.824219 12.476562 48.847656 12.476562 48.875 C 12.519531 51.03125 13.570312 53.101562 15.378906 54.566406 C 16.5625 55.523438 18 56.183594 19.558594 56.5 L 19.558594 58.78125 C 19.558594 60.265625 20.761719 61.46875 22.246094 61.46875 C 23.730469 61.46875 24.933594 60.265625 24.933594 58.78125 L 24.933594 56.382812 C 26.292969 56.035156 27.546875 55.417969 28.601562 54.566406 C 30.445312 53.070312 31.503906 50.949219 31.503906 48.746094 L 31.503906 47.863281 C 31.503906 45.660156 30.445312 43.539062 28.601562 42.042969 C 26.894531 40.660156 24.660156 39.898438 22.304688 39.898438 L 21.675781 39.898438 C 19.640625 39.898438 17.851562 38.6875 17.851562 37.308594 L 17.851562 36.800781 C 17.851562 35.417969 19.640625 34.210938 21.675781 34.210938 L 22.304688 34.210938 C 24.339844 34.210938 26.128906 35.421875 26.128906 36.800781 L 26.128906 36.886719 C 26.128906 38.371094 27.332031 39.574219 28.816406 39.574219 Z M 28.816406 39.574219 "/>
<path style=" stroke:none;fill-rule:nonzero;fill:rgb(96.078431%,71.372549%,80.392157%);fill-opacity:1;" d="M 25.316406 106.894531 C 24.34375 106.894531 23.382812 106.460938 22.742188 105.632812 C 18.148438 99.667969 14.753906 92.679688 12.921875 85.429688 C 12 81.777344 11.453125 78.015625 11.296875 74.25 C 11.140625 70.503906 11.367188 66.714844 11.96875 62.988281 C 12.257812 61.21875 13.921875 60.019531 15.691406 60.304688 C 17.460938 60.589844 18.664062 62.253906 18.378906 64.023438 C 17.84375 67.320312 17.644531 70.667969 17.78125 73.976562 C 17.921875 77.300781 18.402344 80.621094 19.214844 83.839844 C 20.832031 90.238281 23.828125 96.40625 27.886719 101.671875 C 28.980469 103.089844 28.714844 105.128906 27.292969 106.222656 C 26.703125 106.675781 26.007812 106.894531 25.316406 106.894531 Z M 25.316406 106.894531 "/>
<path style=" stroke:none;fill-rule:nonzero;fill:rgb(100%,49.803922%,25.490196%);fill-opacity:1;" d="M 118.636719 75.988281 C 118.621094 75.988281 118.605469 75.988281 118.589844 75.988281 C 116.796875 75.960938 115.367188 74.488281 115.390625 72.699219 L 115.402344 71.910156 L 115.386719 70.617188 L 115.351562 69.5625 C 115.34375 69.363281 115.328125 69.152344 115.3125 68.925781 C 115.304688 68.796875 115.296875 68.667969 115.289062 68.539062 C 115.195312 67.171875 115.046875 65.792969 114.839844 64.441406 C 114.429688 61.765625 113.777344 59.066406 112.898438 56.417969 C 112.03125 53.824219 110.925781 51.269531 109.625 48.832031 C 108.332031 46.429688 106.816406 44.09375 105.121094 41.90625 C 103.449219 39.761719 101.566406 37.71875 99.515625 35.835938 C 97.523438 34.007812 95.324219 32.308594 92.976562 30.792969 C 90.714844 29.332031 88.257812 28.03125 85.675781 26.925781 C 84.464844 26.410156 83.203125 25.9375 81.808594 25.480469 C 80.464844 25.039062 79.125 24.664062 77.835938 24.359375 C 76.09375 23.949219 75.011719 22.203125 75.417969 20.457031 C 75.828125 18.714844 77.574219 17.632812 79.320312 18.042969 C 80.785156 18.386719 82.304688 18.8125 83.828125 19.3125 C 85.40625 19.828125 86.84375 20.367188 88.226562 20.960938 C 91.144531 22.207031 93.925781 23.679688 96.496094 25.339844 C 99.152344 27.058594 101.644531 28.980469 103.90625 31.054688 C 106.21875 33.183594 108.351562 35.492188 110.246094 37.929688 C 112.164062 40.402344 113.878906 43.039062 115.34375 45.765625 C 116.820312 48.53125 118.066406 51.421875 119.054688 54.359375 L 119.054688 54.367188 C 120.050781 57.359375 120.789062 60.421875 121.253906 63.464844 C 121.488281 65 121.660156 66.5625 121.765625 68.117188 L 121.765625 68.152344 C 121.773438 68.273438 121.78125 68.394531 121.789062 68.515625 C 121.804688 68.769531 121.820312 69.03125 121.832031 69.308594 L 121.875 70.5 L 121.890625 71.925781 L 121.878906 72.792969 C 121.855469 74.566406 120.40625 75.988281 118.636719 75.988281 Z M 118.636719 75.988281 "/>
<path style=" stroke:none;fill-rule:nonzero;fill:rgb(99.215686%,85.490196%,14.117647%);fill-opacity:1;" d="M 110.480469 52.449219 C 109.625 52.449219 108.804688 51.972656 108.398438 51.15625 C 105.621094 45.539062 101.605469 40.402344 96.792969 36.304688 C 94.371094 34.242188 91.75 32.433594 89 30.929688 C 86.230469 29.410156 83.296875 28.175781 80.277344 27.25 C 74.25 25.40625 67.757812 24.792969 61.507812 25.46875 C 55.265625 26.136719 49.066406 28.136719 43.582031 31.25 C 42.46875 31.878906 41.054688 31.488281 40.421875 30.375 C 39.789062 29.261719 40.179688 27.847656 41.292969 27.214844 C 47.324219 23.792969 54.144531 21.597656 61.011719 20.859375 C 67.878906 20.117188 75.011719 20.792969 81.632812 22.820312 C 84.953125 23.832031 88.183594 25.195312 91.226562 26.863281 C 94.253906 28.519531 97.136719 30.507812 99.800781 32.777344 C 105.085938 37.277344 109.5 42.925781 112.554688 49.101562 C 113.121094 50.25 112.652344 51.640625 111.503906 52.207031 C 111.175781 52.371094 110.824219 52.449219 110.480469 52.449219 Z M 110.480469 52.449219 "/>
<path style=" stroke:none;fill-rule:nonzero;fill:rgb(0%,76.470588%,53.72549%);fill-opacity:1;" d="M 64.347656 124.0625 C 64.292969 124.0625 64.242188 124.0625 64.191406 124.058594 C 61.082031 123.910156 58.03125 123.5 55.125 122.847656 C 53.648438 122.515625 52.160156 122.117188 50.71875 121.660156 C 49.324219 121.222656 47.875 120.6875 46.417969 120.082031 C 43.550781 118.878906 40.828125 117.449219 38.3125 115.824219 C 35.757812 114.175781 33.328125 112.292969 31.09375 110.222656 C 28.878906 108.171875 26.8125 105.890625 24.953125 103.445312 C 24.035156 102.234375 23.15625 100.96875 22.347656 99.6875 C 21.546875 98.417969 20.785156 97.082031 20.078125 95.707031 C 18.679688 92.976562 17.515625 90.125 16.628906 87.238281 C 15.734375 84.328125 15.09375 81.320312 14.714844 78.296875 C 14.496094 76.519531 15.757812 74.898438 17.535156 74.675781 C 19.3125 74.453125 20.933594 75.71875 21.15625 77.496094 C 21.484375 80.148438 22.046875 82.785156 22.828125 85.332031 C 23.609375 87.855469 24.625 90.347656 25.851562 92.742188 C 26.472656 93.949219 27.140625 95.121094 27.835938 96.226562 C 28.546875 97.347656 29.316406 98.460938 30.121094 99.519531 C 31.75 101.667969 33.5625 103.667969 35.5 105.460938 C 37.460938 107.273438 39.589844 108.925781 41.832031 110.371094 C 44.03125 111.792969 46.414062 113.042969 48.917969 114.09375 C 50.195312 114.628906 51.457031 115.09375 52.667969 115.472656 C 53.941406 115.875 55.242188 116.226562 56.546875 116.515625 C 59.09375 117.089844 61.765625 117.449219 64.5 117.578125 C 66.289062 117.664062 67.671875 119.183594 67.585938 120.976562 C 67.503906 122.710938 66.066406 124.0625 64.347656 124.0625 Z M 64.347656 124.0625 "/>
<path style=" stroke:none;fill-rule:nonzero;fill:rgb(0%,76.470588%,53.72549%);fill-opacity:1;" d="M 35.738281 32.691406 C 34.867188 32.691406 34.011719 32.285156 33.46875 31.523438 C 32.578125 30.269531 32.871094 28.535156 34.125 27.644531 C 34.253906 27.550781 34.386719 27.457031 34.515625 27.363281 C 34.78125 27.171875 35.054688 26.972656 35.34375 26.777344 L 35.355469 26.765625 C 35.46875 26.6875 35.585938 26.609375 35.699219 26.53125 C 35.988281 26.332031 36.285156 26.128906 36.605469 25.925781 C 38.296875 24.824219 40.0625 23.804688 41.855469 22.894531 C 43.648438 21.988281 45.523438 21.167969 47.433594 20.457031 C 49.386719 19.730469 51.34375 19.121094 53.257812 18.644531 C 55.21875 18.15625 57.226562 17.773438 59.234375 17.503906 C 60.753906 17.300781 62.15625 18.367188 62.359375 19.890625 C 62.5625 21.410156 61.496094 22.8125 59.972656 23.015625 C 58.171875 23.257812 56.363281 23.605469 54.597656 24.042969 C 52.886719 24.46875 51.132812 25.015625 49.378906 25.667969 C 47.660156 26.308594 45.972656 27.046875 44.367188 27.859375 C 42.75 28.679688 41.15625 29.601562 39.632812 30.59375 L 39.597656 30.617188 C 39.359375 30.769531 39.109375 30.9375 38.847656 31.121094 C 38.722656 31.203125 38.597656 31.289062 38.476562 31.371094 C 38.246094 31.527344 38.015625 31.695312 37.769531 31.871094 C 37.628906 31.972656 37.488281 32.074219 37.347656 32.175781 C 36.859375 32.523438 36.292969 32.691406 35.738281 32.691406 Z M 35.738281 32.691406 "/>
<path style=" stroke:none;fill-rule:nonzero;fill:rgb(34.901961%,79.607843%,90.980392%);fill-opacity:1;" d="M 66.515625 126.273438 L 66.503906 126.273438 C 65.097656 126.265625 63.65625 126.203125 62.21875 126.09375 C 60.859375 125.984375 59.464844 125.816406 57.953125 125.582031 C 52.246094 124.667969 46.761719 122.871094 41.644531 120.234375 C 40.507812 119.648438 40.0625 118.25 40.648438 117.113281 C 41.234375 115.976562 42.632812 115.53125 43.769531 116.117188 C 48.449219 118.527344 53.460938 120.171875 58.675781 121.003906 C 60.0625 121.21875 61.34375 121.375 62.582031 121.472656 C 63.902344 121.574219 65.230469 121.632812 66.519531 121.636719 C 67.832031 121.636719 69.160156 121.585938 70.460938 121.488281 C 71.691406 121.394531 72.96875 121.246094 74.371094 121.027344 C 79.589844 120.199219 84.605469 118.5625 89.261719 116.160156 C 89.371094 116.105469 89.480469 116.046875 89.589844 115.992188 C 89.777344 115.894531 89.957031 115.800781 90.128906 115.707031 L 91.066406 115.1875 C 91.632812 114.863281 92.167969 114.554688 92.6875 114.226562 L 92.699219 114.222656 C 93.863281 113.5 94.960938 112.757812 95.964844 112.023438 C 98.125 110.429688 100.132812 108.703125 101.925781 106.886719 C 102.824219 105.976562 104.292969 105.96875 105.203125 106.867188 C 106.113281 107.765625 106.121094 109.234375 105.222656 110.144531 C 103.257812 112.132812 101.070312 114.019531 98.710938 115.757812 C 97.609375 116.566406 96.410156 117.371094 95.144531 118.15625 C 94.554688 118.527344 93.960938 118.871094 93.382812 119.203125 L 93.261719 119.273438 L 92.359375 119.769531 C 92.136719 119.890625 91.921875 120.003906 91.710938 120.113281 C 91.609375 120.164062 91.511719 120.214844 91.410156 120.269531 L 91.390625 120.277344 C 86.292969 122.910156 80.804688 124.703125 75.085938 125.609375 C 73.558594 125.84375 72.160156 126.007812 70.804688 126.113281 C 69.386719 126.214844 67.945312 126.269531 66.515625 126.273438 Z M 66.515625 126.273438 "/>
<path style=" stroke:none;fill-rule:nonzero;fill:rgb(17.254902%,16.470588%,16.078431%);fill-opacity:1;" d="M 112.136719 102.441406 L 108.824219 105.753906 L 126.160156 123.089844 L 129.472656 119.777344 Z M 112.136719 102.441406 "/>
<path style=" stroke:none;fill-rule:nonzero;fill:rgb(56.470588%,38.823529%,80.392157%);fill-opacity:1;" d="M 102.675781 118.035156 C 114.683594 118.035156 124.417969 108.300781 124.417969 96.289062 C 124.417969 84.28125 114.683594 74.542969 102.675781 74.542969 C 90.664062 74.542969 80.929688 84.28125 80.929688 96.289062 C 80.929688 108.300781 90.664062 118.035156 102.675781 118.035156 Z M 102.675781 118.035156 "/>
<path style=" stroke:none;fill-rule:nonzero;fill:rgb(34.901961%,79.607843%,90.980392%);fill-opacity:1;" d="M 102.675781 113.398438 C 112.121094 113.398438 119.78125 105.738281 119.78125 96.289062 C 119.78125 86.839844 112.121094 79.183594 102.675781 79.183594 C 93.226562 79.183594 85.566406 86.839844 85.566406 96.289062 C 85.566406 105.738281 93.226562 113.398438 102.675781 113.398438 Z M 102.675781 113.398438 "/>
<path style=" stroke:none;fill-rule:nonzero;fill:rgb(0%,76.470588%,53.72549%);fill-opacity:1;" d="M 137.359375 130.972656 C 135.316406 133.015625 132.007812 133.015625 129.964844 130.972656 L 121.359375 122.371094 C 119.316406 120.328125 119.316406 117.019531 121.359375 114.976562 C 123.402344 112.933594 126.710938 112.933594 128.753906 114.976562 L 137.359375 123.578125 C 139.398438 125.621094 139.398438 128.933594 137.359375 130.972656 Z M 137.359375 130.972656 "/>
<path style=" stroke:none;fill-rule:nonzero;fill:rgb(17.254902%,16.470588%,16.078431%);fill-opacity:1;" d="M 102.671875 105.753906 C 107.902344 105.753906 112.140625 101.515625 112.140625 96.289062 C 112.140625 91.0625 107.902344 86.824219 102.671875 86.824219 C 97.445312 86.824219 93.207031 91.0625 93.207031 96.289062 C 93.207031 101.515625 97.445312 105.753906 102.671875 105.753906 Z M 102.671875 105.753906 "/>
</g>
</svg>
