<svg width="1080" height="1080" viewBox="0 0 1080 1080" fill="none" xmlns="http://www.w3.org/2000/svg">
<path d="M269.182 566.305C267.882 566.305 266.582 566.205 265.282 566.005C249.882 563.705 234.482 560.105 219.582 555.105C203.882 549.905 189.082 543.305 175.582 535.505C167.982 531.105 160.882 526.305 154.382 521.305L154.282 521.205C152.682 520.005 150.982 518.605 149.082 516.905L146.982 515.105C146.282 514.505 145.582 513.805 144.882 513.105L144.082 512.305C143.682 511.905 143.382 511.605 142.982 511.305C141.982 510.405 140.782 509.205 139.482 507.905L135.282 503.605C129.682 497.605 124.382 491.305 119.582 484.705L119.382 484.505C114.282 477.505 109.982 470.905 106.182 464.305L106.082 464.205C101.482 456.205 97.9819 449.505 95.0819 443.105L93.6819 440.005L90.1819 431.505C89.7819 430.505 89.4819 429.605 89.0819 428.705C88.1819 426.305 87.1819 423.705 86.1819 420.805C83.2819 412.505 81.0819 404.405 79.5819 398.205L79.3819 397.405C79.1819 396.505 78.9819 395.705 78.7819 394.805C78.1819 392.105 77.4819 389.005 76.8819 385.805C76.7819 385.305 76.6819 384.805 76.5819 384.305C76.3819 383.005 76.0819 381.505 75.7819 379.905L74.9819 374.605C74.6819 372.505 74.4819 370.705 74.2819 369.005V368.005C74.2819 367.505 74.1819 367.005 74.0819 366.405C73.9819 365.105 73.7819 363.605 73.6819 361.905V361.605C73.6819 360.805 73.5819 359.905 73.4819 359.105C73.2819 356.305 73.0819 353.205 73.0819 349.805C72.8819 342.605 73.0819 334.905 73.8819 325.505V325.005C75.6819 307.305 79.4819 290.705 85.1819 275.905C90.3819 262.405 105.582 255.605 119.082 260.805C132.582 266.005 139.382 281.205 134.182 294.705C130.182 305.205 127.482 317.105 126.082 330.105C125.482 337.405 125.282 343.305 125.482 348.405V349.205C125.482 351.105 125.582 353.305 125.782 355.605C125.882 356.505 125.882 357.405 125.982 358.305C125.982 359.005 126.082 359.805 126.182 360.705C126.282 361.405 126.282 362.005 126.382 362.705L126.482 363.605C126.582 364.705 126.682 365.805 126.782 366.505L126.982 367.005L127.782 372.205C127.882 373.005 128.082 373.905 128.182 374.705C128.282 375.405 128.482 376.105 128.582 376.805V377.105C128.882 379.005 129.382 381.105 129.882 383.305C130.082 384.105 130.282 385.005 130.482 385.805C131.782 390.905 133.482 397.405 135.682 403.505L135.882 404.205C136.382 405.805 137.182 407.705 137.882 409.705C138.282 410.705 138.582 411.605 138.982 412.605L141.682 419.005L142.782 421.305C144.982 426.105 147.682 431.405 151.382 437.905C154.282 442.905 157.582 447.905 161.582 453.505C165.182 458.405 169.182 463.105 173.282 467.505L176.882 471.205C177.282 471.605 177.882 472.205 178.582 472.805C179.082 473.305 179.582 473.705 180.082 474.205C180.282 474.405 180.582 474.705 180.782 474.905C180.982 475.105 181.082 475.205 181.282 475.405L183.582 477.405C184.382 478.105 185.482 478.905 186.682 479.905L186.782 480.005C191.382 483.605 196.282 486.905 201.882 490.105C212.282 496.105 223.782 501.205 236.082 505.305C248.182 509.305 260.582 512.305 272.882 514.105C287.182 516.205 297.182 529.605 294.982 543.905C293.182 556.905 281.982 566.305 269.182 566.305Z" fill="#FF7F41"/>
<path d="M302.381 536.405C286.681 536.405 270.581 534.605 254.281 531.105C237.581 527.505 221.781 522.205 207.181 515.405C199.381 511.805 191.981 507.705 185.181 503.405L184.981 503.305C183.281 502.205 181.681 501.105 180.081 500.005L179.481 499.605C179.081 499.305 178.581 499.005 178.181 498.605C177.081 497.805 175.981 497.005 174.681 496.005L174.481 495.905C173.081 494.805 171.381 493.505 169.781 492.005C169.581 491.905 169.481 491.705 169.281 491.605C168.781 491.105 167.981 490.505 167.181 489.805L165.181 488.005C159.281 482.505 153.581 476.205 148.281 469.405C143.181 462.905 138.481 455.905 134.181 448.605C130.081 441.605 126.281 434.205 122.881 426.505C119.681 419.305 116.881 411.605 114.181 403.105C111.081 393.205 116.681 382.705 126.581 379.605C136.481 376.505 146.981 382.105 150.081 392.005C152.281 399.105 154.581 405.405 157.181 411.305C159.981 417.605 163.181 423.805 166.581 429.605C169.981 435.405 173.781 441.005 177.781 446.205C181.981 451.505 186.281 456.405 190.781 460.605L192.781 462.405C192.981 462.605 193.181 462.705 193.381 462.905C193.681 463.205 194.081 463.505 194.381 463.805L194.481 463.905C195.281 464.605 196.381 465.505 197.481 466.405L198.081 466.905C198.481 467.205 199.181 467.705 199.881 468.205C200.481 468.605 200.981 469.005 201.581 469.405C202.881 470.305 204.181 471.205 205.481 472.005C210.781 475.405 216.581 478.605 222.881 481.405C234.981 487.005 248.281 491.405 262.281 494.505C276.281 497.505 290.081 499.105 303.481 499.005C310.381 499.005 316.981 498.505 323.281 497.605H323.381C326.081 497.205 329.081 496.705 332.681 495.805L333.181 495.705C333.481 495.605 333.781 495.505 334.081 495.505L337.681 494.605C338.381 494.405 339.081 494.205 339.781 494.105C340.781 493.805 341.881 493.605 342.881 493.305H342.981C356.781 489.505 370.981 484.605 385.081 478.805C398.081 473.405 411.481 467.005 425.881 459.305C434.981 454.405 446.381 457.805 451.281 466.905C456.181 476.005 452.781 487.405 443.681 492.305C428.181 500.605 413.781 507.505 399.481 513.505C383.981 519.905 368.381 525.305 353.181 529.505C351.781 529.905 350.481 530.205 349.081 530.605C348.481 530.805 347.881 530.905 347.281 531.105L343.581 532.005C342.781 532.205 341.881 532.405 340.881 532.705C336.381 533.705 332.481 534.405 328.681 535.005C320.781 536.205 312.381 536.805 303.781 536.805C303.281 536.405 302.881 536.405 302.381 536.405Z" fill="#FDDA24"/>
<path d="M973.391 441.609C963.291 441.609 953.591 435.709 949.291 425.909L948.391 423.809L947.391 421.809C947.091 421.209 946.791 420.609 946.491 420.109C946.091 419.309 945.691 418.409 945.291 417.609C944.891 416.909 944.591 416.209 944.191 415.609C942.991 413.409 941.791 411.309 940.791 409.609L940.691 409.509C940.291 408.809 939.791 408.109 939.391 407.409C939.091 406.809 938.591 406.109 938.391 405.809L938.091 405.409L934.791 400.509C934.591 400.109 934.091 399.509 933.591 398.809C933.191 398.209 932.691 397.609 932.291 397.109C931.991 396.709 931.691 396.409 931.491 396.009C930.891 395.209 930.391 394.509 929.991 394.109L929.691 393.709L926.091 389.409C925.791 389.009 925.191 388.309 924.491 387.609C923.991 387.009 923.491 386.509 922.991 385.909L922.791 385.709C921.491 384.209 919.791 382.409 917.991 380.609C917.391 380.009 916.791 379.409 916.191 378.809L915.991 378.609C915.691 378.309 915.091 377.809 914.491 377.209C913.991 376.709 913.491 376.309 912.991 375.809C912.491 375.309 911.991 374.909 911.491 374.409C910.891 373.809 910.291 373.309 909.991 373.009C909.091 372.209 908.191 371.509 907.291 370.709C905.591 369.209 903.891 367.809 902.491 366.809L901.991 366.409C892.091 358.609 880.991 351.509 868.991 345.209C856.891 338.909 844.691 333.709 832.791 329.909C820.191 325.809 807.491 323.109 794.891 321.709C782.191 320.409 769.191 320.509 756.391 322.009C743.491 323.609 730.691 326.509 718.391 330.509C705.991 334.609 693.691 339.609 681.691 345.609C668.691 352.009 652.991 346.709 646.491 333.709C640.091 320.709 645.391 305.009 658.391 298.509C672.591 291.409 687.291 285.409 702.091 280.609C717.691 275.509 733.791 271.909 750.091 269.909H750.291C766.991 268.009 783.891 267.809 800.391 269.509H800.591C816.791 271.309 833.091 274.809 849.091 280.009C863.791 284.809 878.791 291.109 893.491 298.809C908.291 306.609 921.991 315.409 934.291 325.009C936.991 327.009 939.391 329.109 941.491 330.909C942.191 331.509 942.991 332.209 943.691 332.809C945.191 334.009 946.491 335.209 947.491 336.209C947.891 336.509 948.191 336.909 948.591 337.209L949.091 337.609C949.491 337.909 949.791 338.309 950.191 338.609C951.191 339.509 952.491 340.709 953.891 342.109C954.391 342.609 954.891 343.209 955.491 343.709C957.691 345.909 960.091 348.409 962.591 351.209C962.891 351.609 963.291 351.909 963.591 352.309C964.591 353.409 965.691 354.609 966.791 356.009L970.291 360.209C971.691 361.809 972.791 363.409 973.791 364.709L974.791 366.009C975.091 366.409 975.391 366.809 975.691 367.209C976.591 368.309 977.591 369.709 978.691 371.409L981.691 375.809C982.891 377.509 983.791 379.009 984.491 380.209C984.691 380.609 984.991 381.009 985.191 381.409C987.191 384.609 988.892 387.709 990.392 390.409C990.792 391.109 991.191 391.809 991.491 392.509L991.791 393.109C992.491 394.409 993.091 395.709 993.791 397.109C993.991 397.609 994.291 398.109 994.491 398.609L996.291 402.309L997.392 404.909C1003.19 418.209 997.092 433.709 983.892 439.509C980.491 440.909 976.891 441.609 973.391 441.609Z" fill="#F5B6CD"/>
<path d="M360.776 555.908C350.976 555.908 341.976 549.508 339.176 539.708C335.676 527.808 342.576 515.308 354.576 511.808L357.576 510.908L366.776 508.008L375.876 504.808L384.876 501.408L391.176 498.908C393.576 497.908 396.176 496.808 398.776 495.708C400.176 495.108 401.476 494.508 402.876 493.908C418.476 486.908 433.876 479.008 448.876 470.408C480.676 452.208 510.676 431.108 536.276 412.708C546.376 405.508 560.476 407.808 567.676 417.908C574.876 428.008 572.576 442.108 562.476 449.308C535.976 468.308 504.876 490.208 471.276 509.408C455.076 518.808 438.176 527.408 421.076 535.008L420.676 535.208C419.376 535.808 418.076 536.308 416.776 536.908C413.876 538.208 410.876 539.508 407.676 540.708L400.976 543.408L390.876 547.208L380.676 550.708L370.376 554.008L367.076 555.008C364.976 555.608 362.876 555.908 360.776 555.908Z" fill="#00C389"/>
<path d="M624.274 404.305C615.774 404.305 607.374 400.205 602.374 392.505C594.374 380.405 597.674 364.105 609.774 356.105C625.974 345.405 639.374 337.205 652.074 330.205C654.874 328.605 657.574 327.205 660.174 325.805C661.074 325.305 661.974 324.805 662.874 324.405L663.574 324.105C664.574 323.605 665.574 323.105 666.574 322.605C669.174 321.305 671.774 320.005 674.674 318.705C681.974 315.205 689.574 312.005 697.874 308.805C705.374 305.905 713.274 303.305 722.274 300.905C730.074 298.805 738.374 297.005 747.674 295.605C765.074 293.005 782.574 292.705 799.874 294.705C814.274 296.305 824.574 309.405 822.974 323.805C821.374 338.205 808.274 348.605 793.874 346.905C781.074 345.405 768.174 345.705 755.374 347.605C748.174 348.705 741.874 350.005 736.174 351.605H736.074C728.874 353.605 722.474 355.605 716.674 357.905L716.574 358.005C709.574 360.705 703.174 363.405 697.174 366.305L696.674 366.505C694.674 367.405 692.474 368.505 690.174 369.705C689.174 370.205 688.174 370.705 687.174 371.205C686.274 371.705 685.474 372.105 684.574 372.605C682.174 373.905 679.874 375.105 677.774 376.305L677.474 376.505C665.974 382.805 653.674 390.405 638.674 400.305C634.274 402.805 629.174 404.305 624.274 404.305Z" fill="#FF7F41"/>
<path d="M933.48 625.108C930.58 625.108 927.68 624.408 924.88 623.008C915.68 618.308 912.08 607.008 916.78 597.808C927.68 576.708 935.48 555.508 940.18 534.808C945.18 512.508 946.48 491.008 943.88 471.008C943.08 465.208 942.28 460.508 941.08 455.908L940.88 455.208C940.58 453.708 940.08 452.108 939.58 450.308C939.38 449.508 939.08 448.708 938.88 447.808C938.78 447.408 938.58 446.808 938.38 446.208C938.18 445.708 937.98 445.108 937.88 444.608C937.68 444.108 937.58 443.608 937.38 443.108C937.18 442.608 936.98 441.908 936.88 441.708L936.68 441.108C932.88 431.108 928.38 422.008 922.98 414.108C917.08 405.308 910.48 397.408 903.18 390.508C895.78 383.408 887.28 376.808 878.08 370.808C869.38 365.108 866.98 353.508 872.58 344.908C878.28 336.208 889.88 333.808 898.48 339.408C909.58 346.708 919.88 354.708 928.98 363.408C938.28 372.208 946.68 382.208 954.08 393.208C960.98 403.408 966.88 415.008 971.68 427.808C972.28 429.208 972.68 430.508 972.98 431.508C973.08 431.808 973.18 432.208 973.28 432.508L973.38 432.908C973.48 433.308 973.68 433.708 973.78 434.108C974.08 435.108 974.58 436.408 974.98 437.808C975.18 438.508 975.38 439.208 975.58 439.908C976.18 442.008 976.88 444.308 977.38 446.908C978.98 453.308 980.08 459.708 980.88 465.708V466.008C984.08 490.508 982.58 516.408 976.58 543.008C971.18 566.808 962.28 591.008 949.98 614.908C946.88 621.408 940.28 625.108 933.48 625.108Z" fill="#59CBE8"/>
<path d="M354.189 377.528C409.322 377.528 454.016 332.834 454.016 277.701C454.016 222.567 409.322 177.873 354.189 177.873C299.056 177.873 254.361 222.567 254.361 277.701C254.361 332.834 299.056 377.528 354.189 377.528Z" fill="#00C389"/>
<path d="M326.152 334.477C323.668 334.477 321.184 333.412 319.41 331.638L293.034 305.262C289.249 301.477 289.249 295.445 293.034 291.778C296.819 287.993 302.851 287.993 306.518 291.778L326.152 311.412L401.614 235.95C405.399 232.165 411.431 232.165 415.098 235.95C418.883 239.735 418.883 245.767 415.098 249.434L332.894 331.638C331.12 333.53 328.754 334.477 326.152 334.477Z" fill="white"/>
<path d="M665.3 965.595C776.531 965.595 866.701 875.425 866.701 764.195C866.701 652.965 776.531 562.795 665.3 562.795C554.07 562.795 463.9 652.965 463.9 764.195C463.9 875.425 554.07 965.595 665.3 965.595Z" fill="#E4AC7B"/>
<path d="M744.592 854.101L515.392 814.401C490.792 810.101 474.392 786.801 478.692 762.201L568.592 243.801C572.892 219.201 596.192 202.801 620.792 207.101L849.992 246.801C874.592 251.101 890.992 274.401 886.693 299.001L796.792 817.401C792.492 841.901 769.092 858.401 744.592 854.101Z" fill="#FF7F41"/>
<path d="M636.092 819.295C647.414 819.295 656.592 810.117 656.592 798.795C656.592 787.473 647.414 778.295 636.092 778.295C624.77 778.295 615.592 787.473 615.592 798.795C615.592 810.117 624.77 819.295 636.092 819.295Z" fill="white"/>
<path d="M858.797 317.902L778.097 783.102H777.897L507.697 736.202L516.997 682.502L588.397 271.002L858.797 317.902Z" fill="white"/>
<path d="M516.998 682.541L507.695 736.24L777.963 783.063L787.266 729.364L516.998 682.541Z" fill="#FDDA24"/>
<path d="M778.292 783.602L777.792 783.502L507.092 736.602L507.192 736.102L516.592 682.002L517.092 682.102L787.792 729.002L787.692 729.502L778.292 783.602ZM508.292 735.802L777.592 782.502L786.692 729.802L517.392 683.102L508.292 735.802Z" fill="#FDDA24"/>
<path d="M854.492 818.503C842.292 848.603 823.792 876.003 799.992 898.703C794.692 903.803 789.892 910.103 785.592 917.003C780.592 925.103 752.592 933.503 743.992 926.803L700.692 846.703C699.992 837.603 700.392 828.303 701.992 819.003C708.392 781.903 732.492 752.203 763.992 737.103C773.992 732.303 776.192 730.603 787.392 728.903L795.592 681.803L768.692 588.503C756.692 560.103 770.092 527.303 798.492 515.303C799.692 514.803 800.892 514.703 802.092 514.903C804.192 515.303 805.992 516.603 806.892 518.703L839.892 597.003L868.492 664.203C875.292 680.103 877.692 697.503 875.392 714.603L872.592 736.603L871.792 743.103V743.303L869.492 761.103C866.892 781.003 861.792 800.303 854.492 818.503Z" fill="#E4AC7B"/>
<path d="M700.682 846.797L743.981 926.897C719.181 907.697 703.082 878.697 700.682 846.797Z" fill="#E4AC7B"/>
<path d="M871.794 743.305L871.695 743.404L871.794 743.305Z" fill="#CB913F"/>
<path d="M470.89 724.099L445.59 677.899C435.49 659.499 442.29 636.399 460.69 626.399L493.989 608.199L537.489 687.699C547.589 706.099 540.789 729.199 522.389 739.199C504.089 749.299 480.99 742.499 470.89 724.099Z" fill="#E4AC7B"/>
<path d="M484.099 648.4L458.799 602.2C448.699 583.8 455.499 560.7 473.899 550.7L507.199 532.5L550.698 612C560.798 630.4 553.998 653.5 535.599 663.5C517.199 673.6 494.099 666.8 484.099 648.4Z" fill="#E4AC7B"/>
<path d="M497.181 572.699L471.881 526.499C461.781 508.099 468.581 484.999 486.981 474.999L520.281 456.799L563.78 536.299C573.88 554.699 567.081 577.799 548.681 587.799C530.281 597.899 507.281 591.099 497.181 572.699Z" fill="#E4AC7B"/>
<path d="M533.486 381.003L545.786 374.703L538.786 414.903L533.486 381.003Z" fill="#E4AC7B"/>
<path d="M510.284 497L484.984 450.8C474.884 432.4 481.684 409.3 500.084 399.3L533.384 381.1L576.884 460.6C586.984 479 580.184 502.1 561.784 512.1C543.484 522.2 520.384 515.4 510.284 497Z" fill="#E4AC7B"/>
<path d="M864.279 756.497C856.579 756.497 848.979 753.097 843.779 746.697C834.679 735.397 836.479 718.897 847.779 709.797C860.679 699.397 872.879 687.897 883.879 675.597C889.479 669.397 894.879 662.997 899.979 656.397C905.079 649.797 909.879 642.997 914.479 635.997C933.679 606.897 947.479 576.497 955.379 545.797C958.979 531.797 973.379 523.297 987.379 526.997C1001.38 530.597 1009.88 544.997 1006.18 558.997C996.779 595.297 980.679 630.897 958.179 664.997C952.879 672.997 947.179 680.897 941.379 688.497L941.279 688.597C935.379 696.197 929.179 703.597 922.779 710.697C909.879 725.097 895.679 738.597 880.479 750.697C875.879 754.597 870.079 756.497 864.279 756.497Z" fill="#9063CD"/>
<path d="M371.007 845.823C396.867 845.823 417.83 824.859 417.83 798.999C417.83 773.139 396.867 752.176 371.007 752.176C345.147 752.176 324.184 773.139 324.184 798.999C324.184 824.859 345.147 845.823 371.007 845.823Z" fill="#FDDA24"/>
<path d="M371 846.004C345.081 846.004 324 824.923 324 799.004C324 773.085 345.081 752.004 371 752.004C396.919 752.004 418 773.085 418 799.004C418 824.923 396.954 846.004 371 846.004ZM371 752.357C345.293 752.357 324.353 773.262 324.353 799.004C324.353 824.746 345.293 845.651 371 845.651C396.742 845.651 417.647 824.711 417.647 799.004C417.647 773.297 396.742 752.357 371 752.357Z" fill="#FDDA24"/>
<path d="M370.992 825.986C385.892 825.986 397.97 813.907 397.97 799.008C397.97 784.108 385.892 772.029 370.992 772.029C356.092 772.029 344.014 784.108 344.014 799.008C344.014 813.907 356.092 825.986 370.992 825.986Z" fill="#FF7F41"/>
<path d="M220.001 756.714C261.267 756.714 294.72 723.261 294.72 681.996C294.72 640.73 261.267 607.277 220.001 607.277C178.736 607.277 145.283 640.73 145.283 681.996C145.283 723.261 178.736 756.714 220.001 756.714Z" fill="#FDDA24"/>
<path d="M219.994 757C178.634 757 144.994 723.36 144.994 682C144.994 640.64 178.634 607 219.994 607C261.354 607 294.994 640.64 294.994 682C294.994 723.36 261.41 757 219.994 757ZM219.994 607.563C178.972 607.563 145.558 640.922 145.558 682C145.558 723.078 178.972 756.436 219.994 756.436C261.072 756.436 294.431 723.022 294.431 682C294.431 640.978 261.072 607.563 219.994 607.563Z" fill="#FDDA24"/>
<path d="M220 725.046C243.776 725.046 263.05 705.772 263.05 681.996C263.05 658.22 243.776 638.945 220 638.945C196.224 638.945 176.949 658.22 176.949 681.996C176.949 705.772 196.224 725.046 220 725.046Z" fill="#FF7F41"/>
<path d="M725.377 485.666C733.739 487.14 741.708 481.56 743.182 473.198L743.268 472.713C745.456 460.306 741.606 447.314 732.704 437.064C727.622 431.211 721.166 426.5 713.86 423.193L715.684 412.848C717.158 404.487 711.578 396.517 703.216 395.043C694.855 393.569 686.885 399.149 685.411 407.51L683.704 417.192C674.634 417.417 665.878 419.705 658.255 423.931C646.384 430.519 638.323 441.411 636.135 453.817L635.628 456.693C633.441 469.1 637.29 482.092 646.192 492.342C654.428 501.824 666.261 508.334 679.513 510.671L683.062 511.296C694.524 513.317 703.381 521.902 702.012 529.664L701.136 534.632C699.767 542.399 688.509 547.432 677.047 545.411L673.498 544.785C662.224 542.797 653.479 534.463 654.496 526.801C654.501 526.775 654.506 526.744 654.511 526.718C655.986 518.351 650.402 510.376 642.035 508.9C633.773 507.444 625.888 512.877 624.281 521.075L624.276 521.075C624.265 521.137 624.254 521.2 624.248 521.263C624.242 521.3 624.23 521.336 624.224 521.372C624.198 521.518 624.178 521.66 624.158 521.807C622.247 533.988 626.112 546.676 634.84 556.724C640.553 563.301 647.998 568.445 656.449 571.76L654.185 584.605C652.71 592.967 658.29 600.936 666.652 602.41C675.013 603.885 682.983 598.304 684.457 589.943L686.838 576.44C694.835 575.832 702.513 573.613 709.29 569.851C721.161 563.264 729.222 552.372 731.41 539.965L732.286 534.996C734.473 522.59 730.624 509.598 721.722 499.347C713.486 489.866 701.653 483.355 688.401 481.019L684.852 480.393C673.39 478.372 664.533 469.787 665.902 462.026L666.409 459.15C667.778 451.383 679.036 446.351 690.498 448.372L694.047 448.998C705.509 451.019 714.366 459.603 712.997 467.365L712.912 467.85C711.436 476.217 717.021 484.192 725.377 485.666Z" fill="#00C389"/>
</svg>
