<?xml version="1.0" encoding="UTF-8"?>
<svg xmlns="http://www.w3.org/2000/svg" xmlns:xlink="http://www.w3.org/1999/xlink" width="150pt" height="150pt" viewBox="0 0 150 150" version="1.1">
<g id="surface1">
<path style=" stroke:none;fill-rule:nonzero;fill:rgb(100%,49.803922%,25.490196%);fill-opacity:1;" d="M 72.570312 90.988281 L 29.445312 90.988281 L 29.445312 51.332031 C 29.445312 48.652344 31.625 46.472656 34.304688 46.472656 L 67.722656 46.472656 C 70.402344 46.472656 72.582031 48.652344 72.582031 51.332031 L 72.582031 90.988281 Z M 72.570312 90.988281 "/>
<path style=" stroke:none;fill-rule:nonzero;fill:rgb(99.215686%,85.490196%,14.117647%);fill-opacity:1;" d="M 63.484375 107.042969 L 38.527344 107.042969 C 33.515625 107.042969 29.445312 102.972656 29.445312 97.957031 L 29.445312 58.082031 C 29.445312 55.027344 31.917969 52.554688 34.972656 52.554688 L 67.054688 52.554688 C 70.109375 52.554688 72.582031 55.027344 72.582031 58.082031 L 72.582031 97.957031 C 72.570312 102.972656 68.515625 107.042969 63.484375 107.042969 Z M 63.484375 107.042969 "/>
<path style=" stroke:none;fill-rule:nonzero;fill:rgb(100%,100%,100%);fill-opacity:1;" d="M 66.054688 77.070312 L 35.972656 77.070312 C 35.402344 77.070312 34.945312 76.613281 34.945312 76.042969 L 34.945312 58.890625 C 34.945312 58.320312 35.402344 57.863281 35.972656 57.863281 L 66.054688 57.863281 C 66.625 57.863281 67.082031 58.320312 67.082031 58.890625 L 67.082031 76.027344 C 67.082031 76.597656 66.625 77.070312 66.054688 77.070312 Z M 66.054688 77.070312 "/>
<path style=" stroke:none;fill-rule:nonzero;fill:rgb(100%,100%,100%);fill-opacity:1;" d="M 40.847656 83.945312 L 35.527344 83.945312 C 35.195312 83.945312 34.929688 83.679688 34.929688 83.347656 L 34.929688 80.222656 C 34.929688 79.890625 35.195312 79.625 35.527344 79.625 L 40.847656 79.625 C 41.179688 79.625 41.445312 79.890625 41.445312 80.222656 L 41.445312 83.347656 C 41.445312 83.679688 41.179688 83.945312 40.847656 83.945312 Z M 40.847656 83.945312 "/>
<path style=" stroke:none;fill-rule:nonzero;fill:rgb(100%,100%,100%);fill-opacity:1;" d="M 49.402344 83.945312 L 44.082031 83.945312 C 43.75 83.945312 43.484375 83.679688 43.484375 83.347656 L 43.484375 80.222656 C 43.484375 79.890625 43.75 79.625 44.082031 79.625 L 49.402344 79.625 C 49.734375 79.625 50 79.890625 50 80.222656 L 50 83.347656 C 49.984375 83.679688 49.722656 83.945312 49.402344 83.945312 Z M 49.402344 83.945312 "/>
<path style=" stroke:none;fill-rule:nonzero;fill:rgb(100%,100%,100%);fill-opacity:1;" d="M 57.945312 83.945312 L 52.625 83.945312 C 52.292969 83.945312 52.027344 83.679688 52.027344 83.347656 L 52.027344 80.222656 C 52.027344 79.890625 52.292969 79.625 52.625 79.625 L 57.945312 79.625 C 58.277344 79.625 58.542969 79.890625 58.542969 80.222656 L 58.542969 83.347656 C 58.542969 83.679688 58.277344 83.945312 57.945312 83.945312 Z M 57.945312 83.945312 "/>
<path style=" stroke:none;fill-rule:nonzero;fill:rgb(0%,76.470588%,53.72549%);fill-opacity:1;" d="M 66.484375 83.945312 L 61.167969 83.945312 C 60.832031 83.945312 60.570312 83.679688 60.570312 83.347656 L 60.570312 80.222656 C 60.570312 79.890625 60.832031 79.625 61.167969 79.625 L 66.484375 79.625 C 66.820312 79.625 67.082031 79.890625 67.082031 80.222656 L 67.082031 83.347656 C 67.082031 83.679688 66.820312 83.945312 66.484375 83.945312 Z M 66.484375 83.945312 "/>
<path style=" stroke:none;fill-rule:nonzero;fill:rgb(100%,100%,100%);fill-opacity:1;" d="M 40.847656 89.832031 L 35.527344 89.832031 C 35.195312 89.832031 34.929688 89.570312 34.929688 89.234375 L 34.929688 86.109375 C 34.929688 85.777344 35.195312 85.515625 35.527344 85.515625 L 40.847656 85.515625 C 41.179688 85.515625 41.445312 85.777344 41.445312 86.109375 L 41.445312 89.234375 C 41.445312 89.554688 41.179688 89.832031 40.847656 89.832031 Z M 40.847656 89.832031 "/>
<path style=" stroke:none;fill-rule:nonzero;fill:rgb(100%,100%,100%);fill-opacity:1;" d="M 49.402344 89.832031 L 44.082031 89.832031 C 43.75 89.832031 43.484375 89.570312 43.484375 89.234375 L 43.484375 86.109375 C 43.484375 85.777344 43.75 85.515625 44.082031 85.515625 L 49.402344 85.515625 C 49.734375 85.515625 50 85.777344 50 86.109375 L 50 89.234375 C 49.984375 89.554688 49.722656 89.832031 49.402344 89.832031 Z M 49.402344 89.832031 "/>
<path style=" stroke:none;fill-rule:nonzero;fill:rgb(100%,100%,100%);fill-opacity:1;" d="M 57.945312 89.832031 L 52.625 89.832031 C 52.292969 89.832031 52.027344 89.570312 52.027344 89.234375 L 52.027344 86.109375 C 52.027344 85.777344 52.292969 85.515625 52.625 85.515625 L 57.945312 85.515625 C 58.277344 85.515625 58.542969 85.777344 58.542969 86.109375 L 58.542969 89.234375 C 58.542969 89.554688 58.277344 89.832031 57.945312 89.832031 Z M 57.945312 89.832031 "/>
<path style=" stroke:none;fill-rule:nonzero;fill:rgb(100%,49.803922%,25.490196%);fill-opacity:1;" d="M 66.484375 89.832031 L 61.167969 89.832031 C 60.832031 89.832031 60.570312 89.570312 60.570312 89.234375 L 60.570312 86.109375 C 60.570312 85.777344 60.832031 85.515625 61.167969 85.515625 L 66.484375 85.515625 C 66.820312 85.515625 67.082031 85.777344 67.082031 86.109375 L 67.082031 89.234375 C 67.082031 89.554688 66.820312 89.832031 66.484375 89.832031 Z M 66.484375 89.832031 "/>
<path style=" stroke:none;fill-rule:nonzero;fill:rgb(100%,100%,100%);fill-opacity:1;" d="M 40.847656 95.695312 L 35.527344 95.695312 C 35.195312 95.695312 34.929688 95.429688 34.929688 95.097656 L 34.929688 91.972656 C 34.929688 91.640625 35.195312 91.375 35.527344 91.375 L 40.847656 91.375 C 41.179688 91.375 41.445312 91.640625 41.445312 91.972656 L 41.445312 95.097656 C 41.445312 95.417969 41.179688 95.695312 40.847656 95.695312 Z M 40.847656 95.695312 "/>
<path style=" stroke:none;fill-rule:nonzero;fill:rgb(100%,100%,100%);fill-opacity:1;" d="M 49.402344 95.695312 L 44.082031 95.695312 C 43.75 95.695312 43.484375 95.429688 43.484375 95.097656 L 43.484375 91.972656 C 43.484375 91.640625 43.75 91.375 44.082031 91.375 L 49.402344 91.375 C 49.734375 91.375 50 91.640625 50 91.972656 L 50 95.097656 C 49.984375 95.417969 49.722656 95.695312 49.402344 95.695312 Z M 49.402344 95.695312 "/>
<path style=" stroke:none;fill-rule:nonzero;fill:rgb(100%,100%,100%);fill-opacity:1;" d="M 57.945312 95.695312 L 52.625 95.695312 C 52.292969 95.695312 52.027344 95.429688 52.027344 95.097656 L 52.027344 91.972656 C 52.027344 91.640625 52.292969 91.375 52.625 91.375 L 57.945312 91.375 C 58.277344 91.375 58.542969 91.640625 58.542969 91.972656 L 58.542969 95.097656 C 58.542969 95.417969 58.277344 95.695312 57.945312 95.695312 Z M 57.945312 95.695312 "/>
<path style=" stroke:none;fill-rule:nonzero;fill:rgb(56.470588%,38.823529%,80.392157%);fill-opacity:1;" d="M 66.167969 101.570312 L 61.484375 101.570312 C 60.984375 101.570312 60.570312 101.167969 60.570312 100.652344 L 60.570312 92.292969 C 60.570312 91.792969 60.972656 91.375 61.484375 91.375 L 66.167969 91.375 C 66.667969 91.375 67.082031 91.777344 67.082031 92.292969 L 67.082031 100.652344 C 67.082031 101.167969 66.679688 101.570312 66.167969 101.570312 Z M 66.167969 101.570312 "/>
<path style=" stroke:none;fill-rule:nonzero;fill:rgb(100%,100%,100%);fill-opacity:1;" d="M 40.847656 101.570312 L 35.527344 101.570312 C 35.195312 101.570312 34.929688 101.304688 34.929688 100.972656 L 34.929688 97.847656 C 34.929688 97.515625 35.195312 97.25 35.527344 97.25 L 40.847656 97.25 C 41.179688 97.25 41.445312 97.515625 41.445312 97.847656 L 41.445312 100.972656 C 41.445312 101.304688 41.179688 101.570312 40.847656 101.570312 Z M 40.847656 101.570312 "/>
<path style=" stroke:none;fill-rule:nonzero;fill:rgb(100%,100%,100%);fill-opacity:1;" d="M 49.402344 101.570312 L 44.082031 101.570312 C 43.75 101.570312 43.484375 101.304688 43.484375 100.972656 L 43.484375 97.847656 C 43.484375 97.515625 43.75 97.25 44.082031 97.25 L 49.402344 97.25 C 49.734375 97.25 50 97.515625 50 97.847656 L 50 100.972656 C 49.984375 101.304688 49.722656 101.570312 49.402344 101.570312 Z M 49.402344 101.570312 "/>
<path style=" stroke:none;fill-rule:nonzero;fill:rgb(100%,100%,100%);fill-opacity:1;" d="M 57.945312 101.570312 L 52.625 101.570312 C 52.292969 101.570312 52.027344 101.304688 52.027344 100.972656 L 52.027344 97.847656 C 52.027344 97.515625 52.292969 97.25 52.625 97.25 L 57.945312 97.25 C 58.277344 97.25 58.542969 97.515625 58.542969 97.847656 L 58.542969 100.972656 C 58.542969 101.304688 58.277344 101.570312 57.945312 101.570312 Z M 57.945312 101.570312 "/>
<path style=" stroke:none;fill-rule:nonzero;fill:rgb(96.078431%,71.372549%,80.392157%);fill-opacity:1;" d="M 67.082031 49.207031 L 34.929688 49.207031 L 34.929688 43.515625 C 34.929688 42.332031 35.890625 41.359375 37.082031 41.359375 L 64.945312 41.359375 C 66.125 41.359375 67.097656 42.320312 67.097656 43.515625 L 67.097656 49.207031 Z M 67.082031 49.207031 "/>
<path style=" stroke:none;fill-rule:nonzero;fill:rgb(17.254902%,16.470588%,16.078431%);fill-opacity:1;" d="M 66.292969 50.972656 L 35.734375 50.972656 C 35.292969 50.972656 34.929688 50.609375 34.929688 50.167969 L 34.929688 45.277344 C 34.929688 44.097656 35.890625 43.125 37.082031 43.125 L 64.945312 43.125 C 66.125 43.125 67.097656 44.082031 67.097656 45.277344 L 67.097656 50.179688 C 67.082031 50.609375 66.722656 50.972656 66.292969 50.972656 Z M 66.292969 50.972656 "/>
<path style=" stroke:none;fill-rule:nonzero;fill:rgb(89.411765%,67.45098%,48.235294%);fill-opacity:1;" d="M 92.652344 126.640625 C 108.101562 126.640625 120.625 114.117188 120.625 98.667969 C 120.625 83.21875 108.101562 70.695312 92.652344 70.695312 C 77.203125 70.695312 64.679688 83.21875 64.679688 98.667969 C 64.679688 114.117188 77.203125 126.640625 92.652344 126.640625 Z M 92.652344 126.640625 "/>
<path style=" stroke:none;fill-rule:nonzero;fill:rgb(34.901961%,79.607843%,90.980392%);fill-opacity:1;" d="M 105.625 109.082031 L 73.320312 109.097656 C 69.859375 109.097656 67.054688 106.292969 67.054688 102.832031 L 67.027344 29.765625 C 67.027344 26.304688 69.832031 23.5 73.292969 23.5 L 105.597656 23.472656 C 109.054688 23.472656 111.859375 26.277344 111.859375 29.734375 L 111.890625 102.804688 C 111.890625 106.277344 109.097656 109.082031 105.625 109.082031 Z M 105.625 109.082031 "/>
<path style=" stroke:none;fill-rule:nonzero;fill:rgb(100%,100%,100%);fill-opacity:1;" d="M 89.472656 106.929688 C 91.042969 106.929688 92.320312 105.65625 92.320312 104.082031 C 92.320312 102.511719 91.042969 101.234375 89.472656 101.234375 C 87.898438 101.234375 86.625 102.511719 86.625 104.082031 C 86.625 105.65625 87.898438 106.929688 89.472656 106.929688 Z M 89.472656 106.929688 "/>
<path style=" stroke:none;fill-rule:nonzero;fill:rgb(100%,100%,100%);fill-opacity:1;" d="M 108.515625 32.984375 L 108.527344 98.554688 L 108.515625 98.570312 L 70.417969 98.582031 L 70.417969 91.015625 L 70.390625 33 Z M 108.515625 32.984375 "/>
<path style=" stroke:none;fill-rule:nonzero;fill:rgb(100%,49.803922%,25.490196%);fill-opacity:1;" d="M 98.695312 50.777344 L 78.945312 53 C 77.777344 53.125 76.832031 54.277344 76.832031 55.570312 L 76.832031 67.984375 C 76.832031 69.277344 77.777344 70.207031 78.945312 70.070312 L 98.695312 67.847656 C 99.859375 67.722656 100.804688 66.570312 100.804688 65.277344 L 100.804688 52.859375 C 100.804688 51.570312 99.859375 50.640625 98.695312 50.777344 Z M 98.695312 50.777344 "/>
<path style=" stroke:none;fill-rule:nonzero;fill:rgb(34.901961%,79.607843%,90.980392%);fill-opacity:1;" d="M 79.140625 53.875 L 97.484375 49.125 L 97.597656 55.484375 Z M 79.140625 53.875 "/>
<path style=" stroke:none;fill-rule:nonzero;fill:rgb(0%,76.470588%,53.72549%);fill-opacity:1;" d="M 79.140625 53.875 L 100.082031 50.042969 L 100.082031 56.554688 Z M 79.140625 53.875 "/>
<path style=" stroke:none;fill-rule:nonzero;fill:rgb(56.470588%,38.823529%,80.392157%);fill-opacity:1;" d="M 99.679688 54.417969 L 79.027344 53.347656 C 77.804688 53.277344 76.820312 54.277344 76.820312 55.554688 L 76.820312 67.972656 C 76.820312 69.265625 77.804688 70.347656 79.027344 70.417969 L 99.667969 71.484375 C 100.890625 71.554688 101.875 70.554688 101.875 69.277344 L 101.875 56.859375 C 101.890625 55.570312 100.902344 54.484375 99.679688 54.417969 Z M 99.679688 54.417969 "/>
<path style=" stroke:none;fill-rule:nonzero;fill:rgb(99.215686%,85.490196%,14.117647%);fill-opacity:1;" d="M 98.972656 64.386719 C 99.59375 64.386719 100.097656 63.886719 100.097656 63.261719 C 100.097656 62.640625 99.59375 62.136719 98.972656 62.136719 C 98.351562 62.136719 97.847656 62.640625 97.847656 63.261719 C 97.847656 63.886719 98.351562 64.386719 98.972656 64.386719 Z M 98.972656 64.386719 "/>
<path style=" stroke:none;fill-rule:nonzero;fill:rgb(99.215686%,85.490196%,14.117647%);fill-opacity:1;" d="M 108.515625 91 L 70.417969 91 L 70.417969 98.570312 L 108.515625 98.570312 Z M 108.515625 91 "/>
<path style=" stroke:none;fill-rule:nonzero;fill:rgb(99.215686%,85.490196%,14.117647%);fill-opacity:1;" d="M 70.347656 98.652344 L 70.347656 90.945312 L 70.417969 90.945312 L 108.582031 90.929688 L 108.582031 98.640625 L 108.515625 98.640625 Z M 70.484375 91.082031 L 70.484375 98.515625 L 108.445312 98.5 L 108.445312 91.070312 Z M 70.484375 91.082031 "/>
<path style=" stroke:none;fill-rule:nonzero;fill:rgb(89.411765%,67.45098%,48.235294%);fill-opacity:1;" d="M 119.820312 101.597656 C 118.875 106 116.984375 110.195312 114.265625 113.859375 C 113.652344 114.679688 113.152344 115.652344 112.734375 116.707031 C 112.25 117.929688 108.609375 119.75 107.277344 119.042969 L 99.445312 109.125 C 99.140625 107.902344 98.972656 106.625 98.972656 105.304688 C 98.972656 100.070312 101.554688 95.445312 105.515625 92.625 C 106.777344 91.722656 107.027344 91.445312 108.527344 90.957031 L 108.527344 84.320312 L 102.625 72.179688 C 100.304688 68.570312 101.359375 63.777344 104.957031 61.457031 C 105.109375 61.359375 105.277344 61.320312 105.445312 61.320312 C 105.734375 61.320312 106.027344 61.457031 106.195312 61.734375 L 112.570312 71.667969 L 118.082031 80.179688 C 119.390625 82.195312 120.125 84.515625 120.234375 86.917969 L 120.375 89.984375 L 120.417969 90.890625 L 120.417969 90.917969 L 120.527344 93.402344 C 120.640625 96.167969 120.402344 98.929688 119.820312 101.597656 Z M 119.820312 101.597656 "/>
<path style=" stroke:none;fill-rule:nonzero;fill:rgb(89.411765%,67.45098%,48.235294%);fill-opacity:1;" d="M 99.445312 109.125 L 107.277344 119.054688 C 103.429688 117.027344 100.542969 113.429688 99.445312 109.125 Z M 99.445312 109.125 "/>
<path style=" stroke:none;fill-rule:nonzero;fill:rgb(89.411765%,67.45098%,48.235294%);fill-opacity:1;" d="M 65.097656 97.792969 L 60.542969 92.070312 C 58.722656 89.792969 59.097656 86.472656 61.390625 84.652344 L 65.515625 81.359375 L 73.359375 91.207031 C 75.179688 93.484375 74.804688 96.804688 72.515625 98.625 C 70.234375 100.457031 66.917969 100.082031 65.097656 97.792969 Z M 65.097656 97.792969 "/>
<path style=" stroke:none;fill-rule:nonzero;fill:rgb(89.411765%,67.45098%,48.235294%);fill-opacity:1;" d="M 65.097656 87.125 L 60.542969 81.402344 C 58.722656 79.125 59.097656 75.804688 61.390625 73.984375 L 65.515625 70.695312 L 73.359375 80.542969 C 75.179688 82.820312 74.804688 86.140625 72.515625 87.957031 C 70.222656 89.777344 66.902344 89.402344 65.097656 87.125 Z M 65.097656 87.125 "/>
<path style=" stroke:none;fill-rule:nonzero;fill:rgb(89.411765%,67.45098%,48.235294%);fill-opacity:1;" d="M 65.082031 76.457031 L 60.527344 70.734375 C 58.707031 68.457031 59.082031 65.140625 61.375 63.320312 L 65.5 60.027344 L 73.347656 69.875 C 75.167969 72.152344 74.792969 75.472656 72.515625 77.292969 C 70.222656 79.109375 66.902344 78.734375 65.082031 76.457031 Z M 65.082031 76.457031 "/>
<path style=" stroke:none;fill-rule:nonzero;fill:rgb(89.411765%,67.45098%,48.235294%);fill-opacity:1;" d="M 65.5 49.359375 L 67.042969 48.207031 L 67.042969 53.875 Z M 65.5 49.359375 "/>
<path style=" stroke:none;fill-rule:nonzero;fill:rgb(89.411765%,67.45098%,48.235294%);fill-opacity:1;" d="M 65.082031 65.777344 L 60.527344 60.054688 C 58.707031 57.777344 59.082031 54.457031 61.375 52.640625 L 65.5 49.347656 L 73.347656 59.195312 C 75.167969 61.472656 74.792969 64.792969 72.5 66.609375 C 70.222656 68.429688 66.902344 68.054688 65.082031 65.777344 Z M 65.082031 65.777344 "/>
<path style=" stroke:none;fill-rule:nonzero;fill:rgb(0%,76.470588%,53.72549%);fill-opacity:1;" d="M 51.472656 75.109375 C 55.730469 75.109375 59.179688 71.660156 59.179688 67.402344 C 59.179688 63.144531 55.730469 59.695312 51.472656 59.695312 C 47.214844 59.695312 43.765625 63.144531 43.765625 67.402344 C 43.765625 71.660156 47.214844 75.109375 51.472656 75.109375 Z M 51.472656 75.109375 "/>
<path style=" stroke:none;fill-rule:nonzero;fill:rgb(100%,100%,100%);fill-opacity:1;" d="M 49.320312 71.792969 C 49.125 71.792969 48.929688 71.707031 48.792969 71.570312 L 46.75 69.527344 C 46.457031 69.234375 46.457031 68.777344 46.75 68.484375 C 47.042969 68.195312 47.5 68.195312 47.792969 68.484375 L 49.304688 70 L 55.140625 64.167969 C 55.429688 63.875 55.890625 63.875 56.179688 64.167969 C 56.472656 64.457031 56.472656 64.917969 56.179688 65.207031 L 49.832031 71.554688 C 49.695312 71.707031 49.515625 71.792969 49.320312 71.792969 Z M 49.320312 71.792969 "/>
</g>
</svg>
