<svg width="1080" height="1080" viewBox="0 0 1080 1080" fill="none" xmlns="http://www.w3.org/2000/svg">
<path d="M235.295 605.621C233.795 605.621 232.395 605.421 230.895 605.121C219.195 602.321 207.695 596.321 197.595 587.821C193.295 584.321 188.995 580.021 184.395 574.821C180.795 570.721 177.295 566.121 173.295 560.121L173.095 559.821L170.495 555.821L168.095 551.721C167.795 551.221 167.495 550.621 167.195 550.121L166.095 548.021C165.895 547.621 165.695 547.321 165.495 546.921C164.995 546.021 164.495 545.021 163.995 544.021C161.395 538.921 158.995 533.321 156.795 527.521L156.695 527.221C154.295 520.721 152.595 515.221 151.195 509.921C149.495 503.021 148.295 497.321 147.595 491.921C146.695 485.521 146.295 479.321 146.295 473.621V473.321L146.395 468.821C146.395 467.821 146.495 466.721 146.595 465.721C146.595 465.321 146.695 464.921 146.695 464.521L146.895 462.321L147.895 454.921C149.795 442.921 153.095 431.021 157.795 419.521C162.595 407.921 168.595 397.221 175.695 387.521C181.795 379.221 193.395 377.421 201.695 383.521C209.995 389.621 211.795 401.221 205.695 409.521C200.395 416.721 195.895 424.821 192.295 433.621C188.795 442.321 186.195 451.321 184.795 460.321L183.895 467.021C183.895 467.621 183.795 468.121 183.795 468.721C183.795 469.221 183.695 469.721 183.695 470.221L183.595 473.621C183.595 477.721 183.995 482.121 184.595 486.821C185.195 490.821 186.095 495.221 187.395 500.721C188.395 504.721 189.795 509.021 191.695 514.321C193.495 519.021 195.395 523.421 197.495 527.521L197.595 527.721C197.895 528.321 198.195 528.821 198.495 529.321C198.795 529.821 198.995 530.321 199.295 530.821L200.095 532.421C200.195 532.621 200.295 532.821 200.395 532.921L202.595 536.821L204.495 539.721C207.495 544.221 209.995 547.521 212.395 550.321L212.495 550.421C215.695 554.021 218.495 556.921 221.195 559.121L221.495 559.321C227.195 564.121 233.595 567.521 239.795 569.021C249.795 571.421 255.895 581.521 253.495 591.521C251.295 599.921 243.695 605.621 235.295 605.621Z" fill="#00C389"/>
<path d="M155.395 555.721C147.595 555.721 140.195 551.12 136.995 543.421C130.295 527.32 125.695 511.021 123.495 494.921C122.195 485.521 121.795 476.821 122.095 468.221C122.195 466.421 122.295 464.721 122.395 463.221C122.395 462.62 122.495 462.121 122.495 461.521V461.021C122.695 459.321 122.895 457.821 122.995 456.521C123.095 456.021 123.095 455.421 123.195 454.921C123.595 451.421 124.195 448.021 124.795 445.121C124.995 444.221 125.095 443.321 125.295 442.521L125.395 441.821C126.695 435.721 128.895 426.721 132.295 417.521C133.395 414.321 134.595 411.321 135.795 408.621C136.195 407.721 136.495 406.921 136.895 406.021L137.095 405.421C137.695 404.12 138.295 402.821 138.995 401.421C139.295 400.921 139.495 400.321 139.795 399.821L141.395 396.621C141.795 395.921 142.095 395.221 142.495 394.621L146.195 387.921L149.095 383.221C150.395 381.121 151.695 379.221 152.795 377.521L152.995 377.221C153.295 376.821 153.595 376.321 153.895 375.921C154.695 374.721 155.695 373.321 156.795 371.921L160.095 367.621C161.095 366.321 161.995 365.221 162.695 364.421L164.395 362.521C166.595 359.821 168.995 357.421 170.995 355.321C171.595 354.621 172.295 354.021 172.895 353.321L173.495 352.721C180.195 346.321 186.595 340.921 192.995 336.321C194.395 335.221 195.695 334.421 196.895 333.621C197.295 333.321 197.795 333.021 198.195 332.721L201.095 330.821C201.795 330.321 202.595 329.921 203.295 329.521L204.195 329.021C204.695 328.721 205.195 328.421 205.695 328.121C206.995 327.421 208.195 326.621 209.495 325.921L210.095 325.621L214.995 323.121C216.895 322.121 218.595 321.421 219.995 320.821C220.395 320.621 220.795 320.421 221.295 320.321L221.595 320.221C221.995 320.021 222.395 319.921 222.695 319.721C224.095 319.121 225.895 318.321 227.995 317.621L233.895 315.521C235.295 315.121 236.695 314.621 238.095 314.221L240.595 313.521C241.295 313.321 242.295 313.021 243.395 312.721L249.795 311.221C250.695 311.021 251.895 310.721 253.395 310.521L258.695 309.621C260.395 309.321 261.795 309.121 262.995 309.021L265.495 308.721C269.095 308.321 272.495 308.121 275.495 308.121C276.395 308.121 277.295 308.021 278.195 308.021H278.695H279.195C280.595 308.021 282.095 308.021 283.495 308.121L289.295 308.321L293.895 308.721C295.295 308.821 296.795 309.021 298.195 309.121L298.995 309.221L304.795 310.121C304.995 310.121 305.295 310.221 305.495 310.221C306.295 310.321 307.195 310.521 308.295 310.721L312.995 311.721C314.395 312.021 315.795 312.321 317.195 312.721L317.895 312.921L327.195 315.621L335.695 318.621C336.895 319.121 338.195 319.621 339.395 320.121L341.195 320.921C349.495 324.421 356.395 327.621 362.795 331.121C372.495 336.321 376.095 348.421 370.895 358.121C365.695 367.821 353.595 371.421 343.895 366.221C338.695 363.421 332.995 360.721 325.895 357.821L324.295 357.121C323.395 356.721 322.395 356.321 321.495 356.021L314.395 353.521L307.295 351.521C306.295 351.321 305.295 351.121 304.395 350.821L300.095 349.921C299.895 349.921 299.595 349.821 299.395 349.821C298.995 349.721 298.595 349.721 298.295 349.621L293.295 348.821C292.295 348.721 291.295 348.621 290.295 348.521L286.295 348.121L282.295 348.021C281.295 348.021 280.295 347.921 279.295 347.921C278.395 347.921 277.495 348.021 276.695 348.021C274.295 348.121 271.995 348.221 270.195 348.421L269.695 348.521L266.695 348.821C265.995 348.921 265.695 348.921 265.695 348.921L265.295 349.021L259.395 350.021C259.195 350.021 258.995 350.121 258.695 350.221L252.995 351.021C252.695 351.121 252.495 351.121 252.195 351.221C251.795 351.321 251.495 351.421 251.095 351.521L249.495 352.021C248.495 352.321 247.495 352.621 246.495 352.921L241.095 354.821C240.595 355.021 239.695 355.421 238.695 355.821C238.295 356.021 237.795 356.221 237.395 356.421C236.895 356.621 236.295 356.921 235.795 357.121C234.995 357.521 234.095 357.821 233.695 358.021L233.295 358.221L228.495 360.621C227.595 361.121 226.795 361.621 225.895 362.121C225.395 362.421 224.795 362.721 224.295 363.021C223.995 363.221 223.695 363.421 223.395 363.521C223.095 363.721 222.895 363.821 222.595 364.021L220.495 365.421C219.895 365.821 219.295 366.221 218.695 366.621C217.895 367.121 217.095 367.621 216.595 368.021L216.195 368.321C211.395 371.721 206.595 375.821 201.395 380.721C200.795 381.421 200.095 382.021 199.495 382.721C197.795 384.521 196.195 386.121 194.895 387.721L194.595 388.021L192.595 390.321C192.495 390.521 191.995 391.021 191.795 391.321L191.595 391.621L188.095 396.121C187.695 396.721 187.195 397.421 186.595 398.221C186.195 398.821 185.795 399.421 185.295 400.021L185.195 400.121C184.295 401.321 183.495 402.521 182.995 403.421L182.795 403.721L180.095 408.121L177.195 413.521C176.995 413.821 176.795 414.221 176.595 414.521L175.495 416.721C175.195 417.321 174.895 417.921 174.595 418.521C174.195 419.421 173.795 420.321 173.395 421.121C172.995 422.021 172.695 422.921 172.295 423.821C171.295 426.121 170.395 428.221 169.795 430.121L169.595 430.821C167.595 436.021 165.995 441.921 164.295 449.721C164.095 450.62 163.995 451.421 163.795 452.321C163.295 454.821 162.895 457.221 162.695 459.221V459.521C162.595 460.221 162.495 460.921 162.395 461.621C162.295 462.621 162.095 463.521 162.095 464.421C162.095 465.021 161.995 465.721 161.995 466.321C161.895 467.421 161.795 468.521 161.795 469.221V469.521C161.495 475.721 161.895 482.22 162.895 489.32C164.695 501.921 168.295 515.021 173.695 528.021C177.895 538.121 173.095 549.821 162.995 554.021C160.495 555.221 157.895 555.721 155.395 555.721Z" fill="#FF7F41"/>
<path d="M394.295 436.92C386.795 436.92 379.495 433.42 374.795 426.92C357.095 402.02 328.595 383.72 296.395 376.72C296.195 376.72 295.895 376.62 295.695 376.62L292.595 376.12C286.495 375.22 281.195 374.92 276.195 375.22C262.995 376.12 251.695 366.12 250.895 352.92C250.095 339.72 259.995 328.42 273.195 327.62C281.595 327.12 290.195 327.52 299.595 328.92L302.795 329.42C303.195 329.52 303.495 329.52 303.895 329.62H304.095L306.695 330.22C350.295 339.82 389.295 365.02 413.795 399.42C421.395 410.12 418.895 425.02 408.195 432.72C403.995 435.42 399.095 436.92 394.295 436.92Z" fill="#59CBE8"/>
<path d="M291.194 374.42L435.794 836.82C440.594 852.12 456.994 860.72 472.294 855.92L754.794 767.52C770.094 762.72 778.694 746.32 773.894 731.02L629.294 268.62C624.494 253.32 608.094 244.72 592.794 249.52L310.294 337.92C294.994 342.72 286.394 359.12 291.194 374.42Z" fill="#9063CD"/>
<path d="M331.495 326.021L432.695 799.821C435.995 815.521 451.595 825.621 467.295 822.221L756.795 760.421C772.495 757.121 782.595 741.521 779.195 725.821L677.895 252.021C674.595 236.321 658.995 226.221 643.295 229.621L353.895 291.421C338.195 294.821 328.095 310.321 331.495 326.021Z" fill="#FDDA24"/>
<path d="M404.595 264.621L423.195 748.721C423.795 764.721 437.395 777.321 453.395 776.721L749.195 765.321C765.195 764.721 777.795 751.121 777.195 735.121L758.695 251.021C758.095 235.021 744.495 222.421 728.495 223.021L432.595 234.421C416.595 235.021 403.995 248.621 404.595 264.621Z" fill="#2C2A29"/>
<path d="M453.995 488.621C454.995 492.021 458.595 493.621 462.095 492.321C490.695 482.321 519.495 475.221 549.295 469.621C552.695 469.021 554.495 465.421 553.095 461.921C550.195 454.621 548.695 450.921 545.695 443.621C544.395 440.521 541.195 438.621 537.995 439.021C508.895 443.721 480.795 450.121 452.695 459.321C449.095 460.621 446.895 464.821 447.995 468.421C450.395 476.621 451.595 480.621 453.995 488.621Z" fill="white"/>
<path d="M571.595 488.221C570.295 484.921 567.195 482.82 564.195 483.32C518.595 490.92 474.395 503.82 432.795 524.02C429.795 525.62 428.095 529.52 428.795 532.92C430.795 541.52 431.795 545.82 433.795 554.52C434.695 558.22 438.195 559.82 441.595 558.02C483.795 536.82 528.795 522.62 575.095 513.42C577.995 512.82 579.395 509.42 578.195 506.02C575.595 498.82 574.195 495.221 571.595 488.221Z" fill="white"/>
<path d="M573.296 536.621C571.996 533.121 568.596 530.921 565.496 531.721C537.096 539.021 509.396 547.521 482.096 558.021C478.596 559.421 476.796 563.221 477.896 566.521C480.396 574.521 481.696 578.521 484.196 586.521C485.396 590.321 489.796 592.021 493.696 590.421C520.996 579.521 548.696 569.821 576.996 561.821C579.696 561.021 580.896 557.821 579.796 554.521C577.196 547.421 575.896 543.821 573.296 536.621Z" fill="white"/>
<path d="M712.496 524.621C713.296 546.221 692.096 561.421 667.496 562.321L622.196 564.021L617.596 445.021C632.596 442.221 643.996 440.321 657.396 439.821C682.296 438.821 702.596 449.721 703.396 469.921C703.796 481.521 698.096 489.521 687.396 494.121C704.296 498.421 711.896 508.221 712.496 524.621ZM658.296 463.121C654.396 463.221 650.396 463.821 646.496 464.521L647.396 489.021L659.896 488.521C670.996 488.121 675.896 483.321 675.596 475.421C675.496 467.821 669.896 462.621 658.296 463.121ZM682.296 524.521C681.896 514.721 675.496 510.921 663.196 511.421L648.496 512.021L649.596 539.621L663.996 539.021C675.996 538.621 682.596 533.521 682.296 524.521Z" fill="white"/>
<path d="M739.495 490.421C741.295 490.321 755.395 487.421 760.795 487.221C763.495 487.121 765.795 487.221 767.795 487.721L766.895 464.921C764.795 464.821 762.595 464.821 760.295 464.921C748.095 465.421 736.995 468.721 725.795 473.421L728.295 479.921C731.495 487.921 735.095 490.521 739.495 490.421Z" fill="white"/>
<path d="M769.695 538.521C767.495 539.121 764.895 539.521 762.195 539.621C753.195 539.921 748.695 537.721 748.395 531.121C748.095 523.121 757.695 519.821 768.995 518.921L768.295 501.621C741.795 504.521 720.995 512.821 721.895 536.721C722.595 554.221 738.895 561.521 758.195 560.821C762.495 560.621 766.595 560.321 770.495 559.821L769.695 538.521Z" fill="white"/>
<path d="M728.995 262.92L731.695 334.02C731.895 340.02 727.395 345.12 721.495 345.32L680.995 346.92L670.595 347.32C664.795 347.52 659.795 342.82 659.595 336.82L656.995 265.72C656.795 259.72 661.295 254.62 667.195 254.42L717.995 252.42C723.895 252.22 728.795 256.92 728.995 262.92Z" fill="#E6DCCB"/>
<path d="M714.896 332.52L676.396 334.02C672.896 334.12 669.996 331.42 669.896 328.02L667.796 274.32C667.696 270.82 670.396 267.92 673.796 267.82L712.296 266.32C715.796 266.22 718.696 268.92 718.796 272.32L720.896 326.02C721.096 329.42 718.396 332.42 714.896 332.52ZM673.996 269.12C671.296 269.22 669.196 271.52 669.296 274.22L671.396 327.92C671.496 330.62 673.796 332.72 676.496 332.62L714.996 331.12C717.696 331.02 719.796 328.72 719.696 326.02L717.596 272.32C717.496 269.62 715.196 267.52 712.496 267.62L673.996 269.12Z" fill="#2C2A29"/>
<path d="M681.249 333.098L679.85 333.146L680.316 346.837L681.715 346.79L681.249 333.098Z" fill="#2C2A29"/>
<path d="M707.149 332.098L705.75 332.146L706.216 345.837L707.615 345.79L707.149 332.098Z" fill="#2C2A29"/>
<path d="M678.274 254.298L676.875 254.352L677.363 267.043L678.762 266.989L678.274 254.298Z" fill="#2C2A29"/>
<path d="M704.174 253.298L702.775 253.352L703.263 266.043L704.662 265.989L704.174 253.298Z" fill="#2C2A29"/>
<path d="M904.796 666.121C902.396 666.121 899.896 665.821 897.396 665.121C882.596 661.021 873.796 645.721 877.896 630.921L879.096 626.221L880.296 620.721C880.396 620.021 880.496 619.321 880.696 618.721C881.196 615.921 881.696 613.321 881.896 611.021L881.996 610.421L882.396 607.521C882.396 607.321 882.396 607.121 882.396 606.921C882.396 606.521 882.496 606.021 882.496 605.621C882.596 604.821 882.596 604.021 882.696 603.221C882.796 602.221 882.896 601.321 882.896 600.621L883.096 594.621C883.096 594.021 883.096 593.121 883.096 592.321C883.096 591.521 883.096 590.721 883.096 589.921C882.896 582.421 882.296 576.121 881.196 570.521V570.321C879.796 563.021 878.096 556.921 876.096 551.821L875.096 549.221L873.096 544.521C872.896 544.121 872.796 543.821 872.596 543.421L872.496 543.221L869.196 536.821L867.196 533.421C866.496 532.221 865.296 530.521 864.096 528.721C863.496 527.821 862.896 526.921 862.296 526.021C861.896 525.421 861.396 524.821 860.896 524.321C860.396 523.621 859.796 523.021 859.296 522.321L857.896 520.521C857.796 520.421 857.696 520.321 857.596 520.121C857.296 519.821 856.996 519.421 856.696 519.121L853.196 515.221C852.596 514.621 851.996 514.121 851.396 513.521C850.796 512.921 850.196 512.321 849.596 511.721L847.596 509.821C847.196 509.521 846.796 509.121 846.396 508.821L841.696 504.821C841.596 504.721 841.496 504.621 841.396 504.621L836.096 500.621C835.796 500.421 835.596 500.221 835.296 500.021L834.996 499.821L827.796 495.021C827.596 494.921 827.396 494.821 827.196 494.721C826.796 494.521 826.396 494.221 825.996 494.021C812.696 486.321 808.196 469.221 815.896 455.921C823.596 442.621 840.696 438.121 853.996 445.821L854.696 446.221C855.596 446.721 856.396 447.221 857.196 447.721L857.896 448.221L865.296 453.021C866.896 454.021 868.196 455.021 868.996 455.621L874.596 459.821C875.496 460.521 876.896 461.521 878.396 462.821L883.296 467.021C883.996 467.621 885.196 468.621 886.496 469.821L888.696 471.921C889.196 472.421 889.696 472.921 890.196 473.421C891.196 474.421 892.296 475.421 893.296 476.421L894.196 477.421L898.796 482.521C899.496 483.321 900.196 484.021 900.896 484.821L901.396 485.521L903.396 488.021C903.796 488.521 904.196 489.021 904.596 489.521C905.496 490.621 906.496 491.821 907.496 493.321L908.296 494.421C908.896 495.221 909.396 496.121 909.996 496.921C911.796 499.521 913.896 502.521 915.896 506.021L918.396 510.321L922.096 517.621C922.996 519.321 923.596 520.721 923.996 521.621L927.296 529.321L928.196 531.921C931.396 540.121 933.896 549.221 935.896 559.821C937.596 568.521 938.596 578.021 938.896 588.821V589.521C938.896 590.121 938.896 590.621 938.896 591.221C938.896 592.721 938.996 594.621 938.896 596.821L938.696 603.221C938.596 605.121 938.496 606.821 938.296 608.321C938.196 608.921 938.196 609.521 938.096 610.221V610.821C938.096 611.021 938.096 611.221 937.996 611.521C937.896 612.421 937.796 613.521 937.696 614.921L937.296 617.821C936.796 621.921 936.196 625.621 935.496 629.021C935.396 629.821 935.196 630.621 935.096 631.521L934.796 632.821L932.796 641.521L931.596 646.021C928.296 657.921 917.096 666.121 904.796 666.121Z" fill="#59CBE8"/>
<path d="M764.595 793.721C753.795 793.721 744.895 785.121 744.695 774.221C744.495 763.221 753.195 754.121 764.195 753.921C779.595 753.621 794.595 751.421 808.695 747.321L809.895 746.921C812.495 746.121 814.995 745.421 817.095 744.621L817.195 744.521C817.795 744.321 818.495 744.021 819.095 743.821C819.995 743.521 820.795 743.221 821.395 743.021L826.495 741.021C827.395 740.621 828.595 740.121 829.795 739.521L834.295 737.421L840.395 734.221L846.295 730.821L850.595 728.021C851.995 727.121 853.695 725.921 855.395 724.721C856.195 724.121 856.995 723.621 857.795 723.021C863.595 718.521 867.795 714.921 871.395 711.221L871.695 710.921C875.395 707.321 879.295 703.021 883.695 697.421L886.595 693.521C886.795 693.221 886.995 692.921 887.195 692.621C887.295 692.421 887.495 692.221 887.595 692.021L891.595 685.921L894.095 681.821C900.195 671.621 905.295 660.221 909.295 647.921C913.195 635.921 915.895 623.621 917.195 611.221C918.495 598.621 918.495 586.021 917.095 573.821C915.795 562.921 923.695 553.021 934.595 551.721C945.495 550.421 955.395 558.321 956.695 569.221C958.495 584.321 958.495 599.921 956.795 615.521C955.095 630.621 951.895 645.721 947.195 660.221C942.295 675.321 935.995 689.421 928.395 702.221L925.195 707.521L920.795 714.121C920.295 714.921 919.695 715.621 919.195 716.321L915.195 721.721C909.595 728.821 904.595 734.321 899.595 739.221C894.695 744.121 889.295 748.821 881.995 754.521L881.295 755.021C880.495 755.521 879.795 756.121 878.995 756.721C876.895 758.221 874.495 760.021 871.895 761.621L866.895 764.821L859.295 769.221L851.595 773.221L846.695 775.521C845.095 776.321 843.195 777.121 841.095 777.921L836.395 779.821C834.895 780.421 833.495 780.921 832.295 781.321C831.795 781.521 831.395 781.621 830.895 781.821C827.495 783.021 824.395 784.021 821.295 784.921L819.695 785.421C802.195 790.421 783.795 793.121 764.995 793.521C764.895 793.721 764.695 793.721 764.595 793.721Z" fill="#FF7F41"/>
<path d="M760.494 774.021C758.294 774.021 756.194 774.021 754.294 773.921H753.394C752.594 773.921 751.694 773.821 750.894 773.821C748.394 773.721 745.494 773.621 742.394 773.321C741.894 773.321 741.494 773.221 740.994 773.221C739.694 773.121 738.394 773.021 737.094 772.821H736.694L728.294 771.721L719.994 770.321L714.294 769.221C712.894 768.921 711.094 768.621 709.094 768.121C694.594 764.721 680.494 760.121 666.994 754.321L666.594 754.121L659.394 750.921C658.594 750.521 657.794 750.121 656.994 749.721L643.694 742.921L632.294 736.321C631.594 735.921 630.594 735.321 629.394 734.521L619.194 727.821C617.394 726.621 615.894 725.521 614.694 724.721C614.394 724.521 614.094 724.321 613.794 724.121L613.594 723.921L605.494 717.921C603.994 716.821 602.794 715.821 601.694 714.921C601.394 714.621 600.994 714.321 600.694 714.121L600.494 713.921L591.994 707.021C586.794 702.521 581.594 697.821 576.394 693.021C565.194 682.421 564.794 664.821 575.394 653.621C585.994 642.421 603.594 642.021 614.794 652.621C619.194 656.721 623.594 660.821 627.994 664.521L635.494 670.621C636.094 671.021 636.594 671.521 637.194 672.021C637.594 672.421 638.294 672.921 638.494 673.021L646.694 679.021C647.194 679.421 647.694 679.721 648.094 680.121C648.394 680.421 648.794 680.621 649.094 680.921L649.594 681.221L659.994 688.021C660.394 688.221 660.694 688.421 661.094 688.621L671.094 694.421L681.494 699.621C681.794 699.821 682.194 699.921 682.494 700.121C682.594 700.221 682.794 700.221 682.894 700.321L689.194 703.121C699.694 707.621 710.794 711.221 722.194 713.921L722.894 714.121C723.494 714.221 724.394 714.421 725.294 714.621L730.494 715.721L736.794 716.721L743.294 717.521C743.994 717.621 744.794 717.621 745.494 717.721C746.194 717.821 746.794 717.821 747.494 717.921H747.894C749.394 718.121 751.294 718.121 753.194 718.221C754.094 718.221 754.894 718.321 755.794 718.321C760.394 718.421 766.294 718.421 771.994 717.921L772.894 717.821C774.394 717.721 776.394 717.521 778.394 717.221C779.194 717.121 780.094 717.021 780.894 716.921C781.294 716.921 781.994 716.721 782.594 716.621C783.294 716.521 783.994 716.421 784.694 716.321L785.294 716.221C786.094 716.121 787.094 715.921 787.494 715.821L788.094 715.721L792.494 714.821C793.194 714.621 793.794 714.521 794.494 714.321C795.194 714.121 795.794 714.021 796.494 713.821L798.194 713.421L804.094 711.621C809.494 709.821 814.194 707.921 818.494 705.821C832.394 699.121 848.994 705.021 855.694 718.821C862.394 732.721 856.494 749.321 842.694 756.021C836.294 759.121 829.394 761.921 821.594 764.521L820.694 764.821L812.494 767.321L809.994 767.921C809.494 768.021 808.894 768.221 808.394 768.321C807.194 768.621 806.094 768.921 804.894 769.221L804.194 769.421L799.694 770.321C797.594 770.821 795.694 771.121 794.194 771.321L793.294 771.421C792.894 771.521 792.394 771.521 791.994 771.621C790.794 771.821 789.294 772.021 787.594 772.321H787.394C786.594 772.421 785.894 772.521 785.094 772.621C782.594 772.921 779.694 773.321 776.494 773.521C770.794 773.921 765.294 774.021 760.494 774.021Z" fill="#00C389"/>
<path d="M629.895 754.521C626.095 754.521 622.295 753.421 618.895 751.221L605.895 742.721L596.895 736.121C593.495 733.721 590.495 731.221 587.595 728.921L580.895 723.421C579.495 722.221 578.195 721.121 576.995 720.121C576.495 719.721 575.995 719.221 575.495 718.821L575.295 718.721L569.595 713.621C568.195 712.421 566.695 711.021 565.095 709.521L554.295 699.021C548.695 693.321 542.895 687.321 537.295 681.121C526.095 668.821 514.495 655.021 501.895 638.821C494.995 630.021 496.595 617.421 505.295 610.521C514.095 603.621 526.695 605.221 533.595 613.921C545.695 629.321 556.595 642.421 567.095 653.921L567.195 654.121C572.195 659.721 577.395 665.021 582.995 670.721L583.895 671.721L593.195 680.621C593.995 681.421 594.995 682.321 596.095 683.321L601.795 688.421C602.395 688.921 602.995 689.521 603.595 690.021C604.495 690.821 605.295 691.521 605.895 692.021L612.695 697.621C615.195 699.721 617.695 701.621 619.995 703.321L620.295 703.521L628.995 709.921L640.695 717.621C649.995 723.721 652.595 736.221 646.495 745.521C642.795 751.421 636.395 754.521 629.895 754.521Z" fill="#59CBE8"/>
</svg>
